<svg xmlns="http://www.w3.org/2000/svg" xmlns:xlink="http://www.w3.org/1999/xlink" width="100" zoomAndPan="magnify" viewBox="0 0 75 74.999997" height="100" preserveAspectRatio="xMidYMid meet" version="1.0"><defs><clipPath id="d322ac4dfd"><path d="M 0 0 L 74.71875 0 L 74.71875 74.878906 L 0 74.878906 Z M 0 0 " clip-rule="nonzero"/></clipPath><clipPath id="0a1669591d"><rect x="0" width="75" y="0" height="75"/></clipPath></defs><g transform="matrix(1, 0, 0, 1, 0, -0.000000000000001893)"><g clip-path="url(#0a1669591d)"><g clip-path="url(#d322ac4dfd)"><path fill="#ffde59" d="M 26.949219 19.910156 C 27.117188 19.851562 31.121094 18.40625 34.523438 15.003906 C 35.1875 14.339844 40.953125 8.476562 39.292969 6.8125 C 39.082031 6.601562 38.808594 6.511719 38.488281 6.511719 C 36.242188 6.511719 31.679688 11 31.101562 11.582031 C 27.699219 14.984375 26.25 18.984375 26.191406 19.152344 C 26.113281 19.367188 26.167969 19.609375 26.332031 19.773438 C 26.492188 19.933594 26.734375 19.988281 26.949219 19.910156 Z M 31.941406 12.421875 C 35.171875 9.1875 37.722656 7.703125 38.417969 7.683594 C 38.398438 8.378906 36.914062 10.929688 33.683594 14.164062 C 31.640625 16.207031 29.320312 17.519531 27.894531 18.207031 C 28.582031 16.785156 29.894531 14.464844 31.941406 12.421875 Z M 54.730469 49.40625 C 54.898438 49.34375 58.902344 47.898438 62.304688 44.496094 C 62.964844 43.832031 68.734375 37.96875 67.070312 36.304688 C 66.863281 36.097656 66.589844 36.003906 66.269531 36.003906 C 64.023438 36.003906 59.460938 40.492188 58.878906 41.074219 C 55.476562 44.476562 54.03125 48.476562 53.972656 48.644531 C 53.894531 48.863281 53.949219 49.101562 54.113281 49.265625 C 54.273438 49.425781 54.515625 49.480469 54.730469 49.40625 Z M 59.71875 41.914062 C 62.953125 38.679688 65.503906 37.199219 66.199219 37.175781 C 66.179688 37.871094 64.695312 40.421875 61.464844 43.65625 C 59.417969 45.699219 57.097656 47.011719 55.675781 47.699219 C 56.363281 46.277344 57.675781 43.957031 59.71875 41.914062 Z M 0.316406 34.160156 C 0.613281 35.140625 1.277344 35.945312 2.179688 36.429688 C 3.273438 37.015625 4.527344 37.136719 5.714844 36.777344 C 6.902344 36.417969 7.878906 35.617188 8.464844 34.523438 C 9.617188 32.367188 10.085938 30.425781 9.945312 28.414062 C 9.804688 26.472656 9.128906 24.40625 7.929688 22.277344 C 7.664062 21.808594 7.382812 21.34375 7.097656 20.875 C 6.007812 19.082031 4.980469 17.390625 4.945312 15.476562 C 4.925781 14.53125 5.160156 13.492188 5.683594 12.207031 C 6.113281 11.160156 6.816406 10.253906 7.566406 9.296875 C 8.167969 8.527344 8.792969 7.726562 9.269531 6.835938 C 9.855469 5.742188 9.980469 4.484375 9.617188 3.296875 C 9.257812 2.109375 8.457031 1.132812 7.363281 0.550781 C 6.789062 0.242188 6.171875 0.0976562 5.5625 0.0976562 C 4.191406 0.0976562 2.863281 0.832031 2.175781 2.121094 C 1.347656 3.671875 1.933594 5.605469 3.484375 6.433594 C 4.109375 6.769531 4.832031 6.839844 5.515625 6.636719 C 6.195312 6.429688 6.757812 5.96875 7.09375 5.339844 C 7.375 4.808594 7.4375 4.199219 7.261719 3.625 C 7.085938 3.046875 6.699219 2.574219 6.167969 2.289062 C 5.714844 2.046875 5.195312 2 4.703125 2.144531 C 4.214844 2.296875 3.808594 2.625 3.566406 3.078125 C 3.359375 3.46875 3.316406 3.917969 3.445312 4.339844 C 3.570312 4.765625 3.859375 5.113281 4.246094 5.320312 C 4.589844 5.5 4.980469 5.539062 5.347656 5.429688 C 5.355469 5.425781 5.363281 5.425781 5.371094 5.421875 C 5.304688 5.453125 5.238281 5.476562 5.167969 5.496094 C 4.792969 5.613281 4.390625 5.574219 4.042969 5.386719 C 3.070312 4.867188 2.703125 3.65625 3.222656 2.683594 C 3.910156 1.394531 5.515625 0.910156 6.804688 1.597656 C 7.617188 2.03125 8.214844 2.757812 8.480469 3.640625 C 8.75 4.523438 8.65625 5.460938 8.222656 6.273438 C 7.792969 7.078125 7.226562 7.800781 6.628906 8.566406 C 5.863281 9.542969 5.074219 10.558594 4.585938 11.757812 C 4 13.199219 3.734375 14.386719 3.753906 15.5 C 3.796875 17.730469 4.957031 19.644531 6.082031 21.492188 C 6.359375 21.949219 6.636719 22.402344 6.894531 22.859375 C 8.003906 24.835938 8.632812 26.730469 8.757812 28.5 C 8.886719 30.277344 8.457031 32.015625 7.417969 33.964844 C 6.980469 34.777344 6.253906 35.375 5.371094 35.640625 C 4.488281 35.910156 3.554688 35.816406 2.738281 35.382812 C 1.453125 34.695312 0.964844 33.085938 1.652344 31.800781 C 2.171875 30.828125 3.386719 30.460938 4.355469 30.980469 C 4.785156 31.210938 5.054688 31.617188 5.121094 32.0625 C 5.019531 31.703125 4.773438 31.378906 4.414062 31.1875 C 3.609375 30.757812 2.605469 31.0625 2.175781 31.867188 C 1.675781 32.800781 2.027344 33.96875 2.964844 34.46875 C 4.058594 35.054688 5.425781 34.636719 6.011719 33.542969 C 6.707031 32.246094 6.214844 30.625 4.917969 29.933594 C 3.367188 29.101562 1.433594 29.691406 0.605469 31.238281 C 0.121094 32.144531 0.0195312 33.179688 0.316406 34.160156 Z M 5.152344 4.167969 C 5.109375 4.25 5.039062 4.28125 5.003906 4.292969 C 4.984375 4.296875 4.957031 4.300781 4.929688 4.300781 C 4.914062 4.300781 4.902344 4.300781 4.890625 4.300781 C 4.996094 4.257812 5.085938 4.183594 5.152344 4.085938 C 5.167969 4.109375 5.167969 4.140625 5.152344 4.167969 Z M 3.960938 32.582031 C 3.949219 32.601562 3.921875 32.617188 3.894531 32.621094 C 3.9375 32.515625 3.945312 32.398438 3.925781 32.289062 C 3.996094 32.367188 4.011719 32.484375 3.960938 32.582031 Z M 72.054688 66.578125 C 69.921875 65.378906 67.988281 64.863281 65.980469 64.960938 C 64.03125 65.054688 61.953125 65.6875 59.796875 66.839844 C 59.324219 67.089844 58.851562 67.363281 58.378906 67.636719 C 56.570312 68.683594 54.859375 69.671875 52.953125 69.671875 C 52.949219 69.671875 52.941406 69.671875 52.933594 69.671875 C 51.988281 69.667969 50.953125 69.40625 49.679688 68.855469 C 48.640625 68.40625 47.753906 67.679688 46.8125 66.910156 C 46.054688 66.289062 45.269531 65.648438 44.390625 65.148438 C 43.683594 64.753906 42.902344 64.550781 42.117188 64.550781 C 41.695312 64.550781 41.277344 64.605469 40.859375 64.722656 C 39.667969 65.054688 38.671875 65.832031 38.0625 66.914062 C 37.558594 67.804688 37.433594 68.839844 37.710938 69.828125 C 37.984375 70.8125 38.628906 71.632812 39.519531 72.136719 C 41.050781 73 42.996094 72.457031 43.859375 70.925781 C 44.582031 69.644531 44.128906 68.015625 42.847656 67.292969 C 42.324219 66.996094 41.714844 66.921875 41.132812 67.085938 C 40.554688 67.246094 40.074219 67.625 39.777344 68.148438 C 39.523438 68.597656 39.460938 69.113281 39.601562 69.609375 C 39.738281 70.101562 40.058594 70.515625 40.507812 70.765625 C 40.890625 70.984375 41.339844 71.035156 41.765625 70.917969 C 42.191406 70.800781 42.546875 70.523438 42.761719 70.136719 C 42.960938 69.78125 42.996094 69.378906 42.886719 69.019531 C 43.070312 69.429688 43.0625 69.921875 42.824219 70.34375 C 42.285156 71.304688 41.0625 71.644531 40.101562 71.101562 C 39.488281 70.753906 39.042969 70.1875 38.855469 69.507812 C 38.664062 68.828125 38.75 68.113281 39.097656 67.5 C 39.550781 66.695312 40.292969 66.113281 41.179688 65.867188 C 42.070312 65.621094 43.003906 65.730469 43.804688 66.183594 C 44.597656 66.632812 45.308594 67.214844 46.058594 67.828125 C 47.023438 68.617188 48.015625 69.429688 49.207031 69.945312 C 50.632812 70.5625 51.816406 70.855469 52.929688 70.859375 C 52.9375 70.859375 52.945312 70.859375 52.953125 70.859375 C 55.175781 70.859375 57.105469 69.742188 58.972656 68.664062 C 59.4375 68.398438 59.894531 68.132812 60.359375 67.886719 C 62.355469 66.820312 64.265625 66.234375 66.039062 66.148438 C 67.820312 66.0625 69.542969 66.527344 71.46875 67.613281 C 72.273438 68.066406 72.851562 68.804688 73.101562 69.695312 C 73.347656 70.585938 73.234375 71.515625 72.78125 72.320312 C 72.433594 72.9375 71.871094 73.378906 71.1875 73.570312 C 70.507812 73.761719 69.792969 73.671875 69.179688 73.324219 C 68.21875 72.785156 67.878906 71.5625 68.417969 70.605469 C 68.65625 70.183594 69.070312 69.921875 69.519531 69.863281 C 69.15625 69.960938 68.828125 70.195312 68.628906 70.550781 C 68.179688 71.347656 68.460938 72.359375 69.257812 72.804688 C 69.703125 73.058594 70.222656 73.121094 70.714844 72.984375 C 71.210938 72.84375 71.621094 72.523438 71.875 72.078125 C 72.167969 71.550781 72.242188 70.945312 72.082031 70.363281 C 71.921875 69.785156 71.542969 69.304688 71.019531 69.007812 C 70.398438 68.65625 69.679688 68.570312 68.992188 68.761719 C 68.304688 68.953125 67.734375 69.398438 67.382812 70.019531 C 66.519531 71.550781 67.0625 73.5 68.59375 74.359375 C 69.488281 74.863281 70.523438 74.988281 71.507812 74.714844 C 72.492188 74.441406 73.316406 73.796875 73.816406 72.90625 C 74.425781 71.824219 74.578125 70.570312 74.246094 69.375 C 73.914062 68.179688 73.132812 67.1875 72.054688 66.578125 Z M 41.550781 69.203125 C 41.574219 69.191406 41.605469 69.191406 41.628906 69.207031 C 41.726562 69.261719 41.773438 69.367188 41.757812 69.472656 C 41.714844 69.367188 41.644531 69.273438 41.550781 69.203125 Z M 70.011719 71.039062 C 70.03125 71.050781 70.046875 71.078125 70.050781 71.105469 C 69.941406 71.058594 69.828125 71.046875 69.71875 71.066406 C 69.796875 71 69.914062 70.984375 70.011719 71.039062 Z M 12.082031 37.398438 C 12.101562 37.441406 12.128906 37.480469 12.15625 37.519531 C 12.175781 37.542969 12.1875 37.570312 12.207031 37.589844 C 12.242188 37.628906 12.289062 37.652344 12.332031 37.679688 C 12.355469 37.695312 12.371094 37.714844 12.398438 37.722656 C 12.421875 37.734375 12.453125 37.734375 12.480469 37.742188 C 12.527344 37.753906 12.574219 37.769531 12.621094 37.769531 C 12.625 37.769531 12.628906 37.773438 12.632812 37.773438 C 25.960938 37.773438 36.808594 48.859375 36.808594 62.484375 C 36.808594 62.492188 36.8125 62.5 36.8125 62.507812 C 36.816406 62.550781 36.828125 62.589844 36.839844 62.632812 C 36.847656 62.667969 36.851562 62.703125 36.867188 62.734375 C 36.882812 62.765625 36.90625 62.792969 36.925781 62.820312 C 36.949219 62.855469 36.972656 62.890625 37.003906 62.917969 C 37.027344 62.941406 37.058594 62.957031 37.089844 62.976562 C 37.125 63 37.160156 63.023438 37.199219 63.039062 C 37.238281 63.050781 37.277344 63.058594 37.316406 63.0625 C 37.347656 63.066406 37.371094 63.078125 37.402344 63.078125 L 74.097656 63.078125 C 74.425781 63.078125 74.691406 62.8125 74.691406 62.484375 C 74.691406 57.957031 71.007812 54.269531 66.476562 54.269531 L 50.394531 54.269531 C 50.414062 53.855469 50.421875 53.464844 50.421875 53.097656 C 50.421875 36.710938 37.1875 23.367188 20.847656 23.171875 L 20.847656 8.191406 C 20.847656 3.664062 17.160156 -0.0234375 12.632812 -0.0234375 C 12.472656 -0.0234375 12.324219 0.0390625 12.210938 0.152344 C 12.101562 0.261719 12.039062 0.414062 12.039062 0.570312 L 12.039062 37.179688 C 12.039062 37.207031 12.050781 37.234375 12.054688 37.261719 C 12.0625 37.308594 12.066406 37.355469 12.082031 37.398438 Z M 49.234375 53.097656 C 49.234375 53.464844 49.226562 53.851562 49.207031 54.269531 L 45.875 54.269531 C 45.148438 54.269531 44.5 53.78125 44.296875 53.078125 C 42.710938 47.578125 39.722656 42.625 35.773438 38.664062 L 41.15625 33.144531 C 46.152344 38.320312 49.234375 45.355469 49.234375 53.097656 Z M 20.847656 24.351562 C 28.386719 24.445312 35.230469 27.460938 40.3125 32.308594 L 34.917969 37.835938 C 31.261719 34.414062 26.859375 31.808594 22.019531 30.34375 C 21.929688 30.320312 21.847656 30.285156 21.765625 30.246094 C 21.207031 29.972656 20.847656 29.410156 20.847656 28.773438 Z M 13.226562 35.800781 L 13.226562 1.191406 C 16.824219 1.492188 19.660156 4.519531 19.660156 8.191406 L 19.660156 28.773438 C 19.660156 29.058594 19.707031 29.335938 19.785156 29.601562 C 19.90625 30 20.117188 30.359375 20.390625 30.664062 C 20.628906 30.925781 20.914062 31.152344 21.242188 31.3125 C 21.378906 31.378906 21.523438 31.4375 21.675781 31.484375 C 26.519531 32.945312 30.914062 35.597656 34.519531 39.089844 C 34.519531 39.09375 34.519531 39.09375 34.519531 39.09375 C 34.523438 39.09375 34.523438 39.09375 34.523438 39.09375 C 38.539062 42.984375 41.570312 47.914062 43.15625 53.40625 C 43.25 53.734375 43.402344 54.03125 43.597656 54.296875 C 43.835938 54.621094 44.140625 54.886719 44.488281 55.085938 C 44.902344 55.320312 45.378906 55.457031 45.875 55.457031 L 66.476562 55.457031 C 70.152344 55.457031 73.175781 58.292969 73.480469 61.890625 L 37.992188 61.890625 C 37.984375 61.570312 37.964844 61.25 37.945312 60.933594 C 37.183594 47.859375 26.886719 37.371094 14.074219 36.632812 C 13.792969 36.617188 13.511719 36.597656 13.226562 36.589844 Z M 26 47.214844 C 23.261719 44.78125 20.089844 43.351562 17.074219 43.195312 C 16.878906 43.183594 16.6875 43.179688 16.496094 43.179688 C 13.429688 43.179688 10.664062 44.472656 8.472656 46.941406 C 3.734375 52.265625 2.335938 72.324219 2.277344 73.171875 C 2.265625 73.355469 2.339844 73.535156 2.476562 73.65625 C 2.613281 73.777344 2.796875 73.832031 2.980469 73.796875 C 3.816406 73.640625 23.574219 69.917969 28.3125 64.59375 C 32.863281 59.476562 31.933594 52.496094 26 47.214844 Z M 27.425781 63.800781 C 23.457031 68.261719 7.242188 71.734375 3.523438 72.480469 C 3.832031 68.699219 5.390625 52.191406 9.359375 47.730469 C 11.441406 45.386719 14.085938 44.230469 17.011719 44.382812 C 19.761719 44.523438 22.671875 45.847656 25.207031 48.105469 C 29.707031 52.105469 32.132812 58.511719 27.425781 63.800781 Z M 22.917969 50.085938 C 22.828125 50.085938 22.742188 50.105469 22.65625 50.144531 L 14.992188 53.847656 C 13.375 54.628906 12.0625 55.949219 11.265625 57.546875 C 11.113281 57.855469 10.972656 58.167969 10.859375 58.492188 L 8.074219 66.535156 C 7.996094 66.765625 8.0625 67.015625 8.242188 67.175781 C 8.421875 67.335938 8.679688 67.371094 8.894531 67.265625 L 16.5625 63.5625 C 16.917969 63.390625 17.257812 63.183594 17.582031 62.960938 C 19.011719 61.984375 20.121094 60.566406 20.691406 58.921875 L 22.894531 52.558594 L 23.476562 50.875 C 23.496094 50.820312 23.507812 50.761719 23.511719 50.703125 C 23.515625 50.527344 23.445312 50.355469 23.3125 50.238281 C 23.199219 50.136719 23.058594 50.085938 22.917969 50.085938 Z M 19.972656 57.371094 L 19.582031 58.492188 L 19.570312 58.53125 C 19.496094 58.742188 19.410156 58.949219 19.320312 59.152344 C 19.289062 59.214844 19.253906 59.273438 19.226562 59.335938 C 19.15625 59.472656 19.089844 59.609375 19.011719 59.742188 C 18.96875 59.816406 18.917969 59.886719 18.871094 59.960938 C 18.796875 60.074219 18.726562 60.191406 18.648438 60.300781 C 18.59375 60.375 18.53125 60.445312 18.476562 60.519531 C 18.394531 60.621094 18.320312 60.722656 18.234375 60.816406 C 18.171875 60.890625 18.101562 60.960938 18.035156 61.03125 C 17.949219 61.121094 17.863281 61.210938 17.773438 61.296875 C 17.699219 61.363281 17.625 61.429688 17.546875 61.496094 C 17.457031 61.574219 17.367188 61.652344 17.269531 61.726562 C 17.1875 61.789062 17.105469 61.847656 17.019531 61.910156 C 16.921875 61.976562 16.828125 62.046875 16.726562 62.109375 C 16.636719 62.167969 16.546875 62.21875 16.453125 62.269531 C 16.382812 62.308594 16.3125 62.347656 16.242188 62.386719 C 16.175781 62.421875 16.113281 62.460938 16.046875 62.492188 L 14.832031 63.078125 L 9.667969 65.574219 L 11.542969 60.152344 L 11.984375 58.882812 C 12.007812 58.808594 12.042969 58.742188 12.066406 58.671875 C 12.097656 58.59375 12.128906 58.515625 12.164062 58.4375 C 12.203125 58.34375 12.242188 58.253906 12.285156 58.164062 C 12.335938 58.050781 12.398438 57.945312 12.457031 57.835938 C 12.503906 57.75 12.550781 57.664062 12.601562 57.578125 C 12.664062 57.472656 12.734375 57.371094 12.804688 57.265625 C 12.859375 57.1875 12.914062 57.105469 12.972656 57.023438 C 13.046875 56.925781 13.128906 56.828125 13.207031 56.734375 C 13.269531 56.660156 13.328125 56.582031 13.390625 56.511719 C 13.480469 56.417969 13.570312 56.328125 13.664062 56.234375 C 13.730469 56.171875 13.792969 56.101562 13.859375 56.039062 C 13.960938 55.949219 14.066406 55.867188 14.167969 55.78125 C 14.238281 55.726562 14.300781 55.667969 14.371094 55.613281 C 14.488281 55.527344 14.609375 55.449219 14.734375 55.367188 C 14.796875 55.324219 14.859375 55.277344 14.921875 55.238281 C 15.085938 55.140625 15.257812 55.046875 15.429688 54.960938 C 15.457031 54.949219 15.480469 54.933594 15.507812 54.917969 L 21.886719 51.839844 Z M 19.972656 57.371094 " fill-opacity="1" fill-rule="nonzero"/></g><path fill="#ffcc00" d="M 28.566406 21.832031 C 28.808594 21.863281 34.550781 22.613281 36.242188 22.417969 C 37.121094 22.316406 37.9375 22.050781 38.542969 21.671875 C 39.273438 21.207031 39.640625 20.613281 39.566406 19.992188 C 39.453125 18.988281 38.207031 18.335938 36.546875 18.335938 C 36.296875 18.335938 36.042969 18.347656 35.777344 18.378906 C 34.085938 18.574219 28.664062 20.601562 28.433594 20.6875 C 28.179688 20.78125 28.019531 21.039062 28.050781 21.3125 C 28.082031 21.582031 28.296875 21.796875 28.566406 21.832031 Z M 35.914062 19.558594 C 37.457031 19.382812 38.359375 19.882812 38.386719 20.125 C 38.398438 20.230469 38.253906 20.445312 37.90625 20.667969 C 37.457031 20.949219 36.800781 21.15625 36.105469 21.238281 C 35.949219 21.253906 35.746094 21.265625 35.507812 21.265625 C 34.464844 21.265625 32.738281 21.109375 31.214844 20.949219 C 32.992188 20.332031 35.078125 19.65625 35.914062 19.558594 Z M 25.019531 18.277344 C 25.285156 18.308594 25.546875 18.152344 25.644531 17.898438 C 25.730469 17.667969 27.757812 12.246094 27.953125 10.554688 C 28.054688 9.671875 27.980469 8.816406 27.746094 8.144531 C 27.460938 7.324219 26.960938 6.832031 26.339844 6.761719 C 26.289062 6.757812 26.242188 6.753906 26.195312 6.753906 C 25.101562 6.753906 24.136719 8.148438 23.914062 10.089844 C 23.71875 11.78125 24.464844 17.523438 24.5 17.765625 C 24.535156 18.035156 24.75 18.246094 25.019531 18.277344 Z M 25.09375 10.226562 C 25.269531 8.683594 25.949219 7.925781 26.207031 7.941406 C 26.292969 7.953125 26.480469 8.121094 26.621094 8.535156 C 26.796875 9.035156 26.851562 9.722656 26.769531 10.417969 C 26.675781 11.253906 26 13.339844 25.382812 15.117188 C 25.183594 13.246094 24.996094 11.058594 25.09375 10.226562 Z M 56.347656 51.324219 C 56.589844 51.359375 62.328125 52.105469 64.019531 51.910156 C 64.902344 51.8125 65.71875 51.546875 66.320312 51.164062 C 67.054688 50.703125 67.417969 50.105469 67.347656 49.484375 C 67.234375 48.480469 65.984375 47.828125 64.328125 47.828125 C 64.078125 47.828125 63.820312 47.84375 63.558594 47.871094 C 61.867188 48.066406 56.445312 50.09375 56.214844 50.179688 C 55.960938 50.277344 55.800781 50.535156 55.832031 50.804688 C 55.863281 51.074219 56.074219 51.289062 56.347656 51.324219 Z M 63.695312 49.054688 C 65.238281 48.875 66.140625 49.375 66.167969 49.621094 C 66.179688 49.726562 66.035156 49.941406 65.6875 50.160156 C 65.238281 50.441406 64.582031 50.652344 63.886719 50.730469 C 63.730469 50.75 63.527344 50.757812 63.285156 50.757812 C 62.246094 50.757812 60.515625 50.605469 58.996094 50.441406 C 60.773438 49.824219 62.859375 49.148438 63.695312 49.054688 Z M 52.800781 47.773438 C 53.066406 47.804688 53.328125 47.644531 53.425781 47.390625 C 53.511719 47.160156 55.539062 41.738281 55.734375 40.046875 C 55.832031 39.167969 55.761719 38.3125 55.527344 37.636719 C 55.242188 36.816406 54.742188 36.328125 54.121094 36.257812 C 54.070312 36.25 54.023438 36.246094 53.972656 36.246094 C 52.882812 36.246094 51.914062 37.640625 51.691406 39.582031 C 51.5 41.277344 52.246094 47.015625 52.277344 47.257812 C 52.3125 47.53125 52.527344 47.742188 52.800781 47.773438 Z M 52.875 39.71875 C 53.050781 38.175781 53.71875 37.40625 53.984375 37.4375 C 54.074219 37.445312 54.257812 37.613281 54.402344 38.027344 C 54.578125 38.527344 54.632812 39.214844 54.550781 39.910156 C 54.457031 40.746094 53.78125 42.832031 53.164062 44.609375 C 52.964844 42.738281 52.777344 40.554688 52.875 39.71875 Z M 37.003906 62.917969 C 37.027344 62.941406 37.058594 62.957031 37.089844 62.976562 C 37.066406 62.964844 37.039062 62.957031 37.015625 62.9375 C 37.011719 62.933594 37.007812 62.925781 37.003906 62.917969 Z M 37.945312 60.933594 L 43.597656 54.296875 C 43.835938 54.621094 44.140625 54.886719 44.488281 55.085938 L 38.6875 61.890625 L 37.988281 61.890625 C 37.984375 61.570312 37.964844 61.25 37.945312 60.933594 Z M 12.199219 37.585938 C 12.179688 37.566406 12.171875 37.539062 12.15625 37.519531 C 12.175781 37.542969 12.1875 37.570312 12.207031 37.589844 C 12.203125 37.589844 12.203125 37.589844 12.199219 37.585938 Z M 14.074219 36.632812 C 13.792969 36.617188 13.511719 36.597656 13.226562 36.589844 L 13.226562 35.800781 L 19.785156 29.601562 C 19.90625 30 20.117188 30.359375 20.390625 30.664062 Z M 20.691406 58.921875 L 22.894531 52.558594 L 20.691406 58.921875 C 20.125 60.566406 19.011719 61.984375 17.582031 62.960938 C 19.011719 61.984375 20.121094 60.566406 20.691406 58.921875 Z M 11.542969 60.152344 L 11.984375 58.882812 C 12.007812 58.808594 12.042969 58.742188 12.066406 58.671875 C 12.480469 59.554688 13.050781 60.324219 13.769531 60.964844 C 14.488281 61.601562 15.320312 62.082031 16.242188 62.386719 C 16.175781 62.421875 16.113281 62.460938 16.046875 62.492188 L 14.832031 63.078125 C 14.164062 62.753906 13.539062 62.347656 12.980469 61.851562 C 12.417969 61.351562 11.945312 60.78125 11.542969 60.152344 Z M 15.507812 54.917969 L 21.886719 51.835938 L 16.613281 54.386719 C 16.929688 55.09375 17.390625 55.730469 17.96875 56.242188 C 18.546875 56.757812 19.230469 57.144531 19.972656 57.371094 L 19.582031 58.492188 C 18.695312 58.210938 17.871094 57.75 17.175781 57.132812 C 16.480469 56.511719 15.933594 55.746094 15.550781 54.898438 L 15.507812 54.917969 C 15.480469 54.933594 15.457031 54.949219 15.429688 54.960938 C 15.457031 54.949219 15.480469 54.929688 15.507812 54.917969 Z M 23.511719 50.703125 C 23.515625 50.570312 23.476562 50.441406 23.398438 50.335938 C 23.476562 50.441406 23.515625 50.570312 23.511719 50.703125 Z M 23.390625 59.804688 C 24.414062 60.714844 25.984375 60.621094 26.894531 59.601562 C 27.804688 58.578125 27.710938 57.007812 26.691406 56.097656 C 26.230469 55.691406 25.652344 55.46875 25.042969 55.46875 C 24.996094 55.46875 24.945312 55.472656 24.894531 55.472656 C 24.234375 55.511719 23.628906 55.808594 23.1875 56.300781 C 22.277344 57.324219 22.371094 58.894531 23.390625 59.804688 Z M 24.074219 57.09375 C 24.304688 56.835938 24.621094 56.679688 24.964844 56.660156 C 25.308594 56.640625 25.640625 56.753906 25.898438 56.984375 C 26.433594 57.460938 26.480469 58.277344 26.007812 58.8125 C 25.53125 59.34375 24.714844 59.390625 24.179688 58.917969 C 23.648438 58.445312 23.601562 57.625 24.074219 57.09375 Z M 15.644531 51.941406 C 16.308594 51.902344 16.914062 51.609375 17.355469 51.113281 C 18.261719 50.089844 18.171875 48.519531 17.148438 47.609375 C 16.675781 47.191406 16.089844 46.984375 15.5 46.984375 C 14.816406 46.984375 14.136719 47.265625 13.648438 47.816406 C 13.207031 48.308594 12.984375 48.945312 13.023438 49.609375 C 13.0625 50.269531 13.355469 50.878906 13.851562 51.316406 C 14.347656 51.757812 14.988281 51.980469 15.644531 51.941406 Z M 14.535156 48.605469 C 15.007812 48.074219 15.828125 48.023438 16.359375 48.496094 C 16.890625 48.972656 16.941406 49.789062 16.464844 50.324219 C 16.238281 50.582031 15.921875 50.734375 15.574219 50.753906 C 15.550781 50.757812 15.523438 50.757812 15.5 50.757812 C 15.183594 50.757812 14.878906 50.640625 14.640625 50.429688 C 14.382812 50.199219 14.230469 49.882812 14.210938 49.539062 C 14.191406 49.195312 14.304688 48.863281 14.535156 48.605469 Z M 14.535156 48.605469 " fill-opacity="1" fill-rule="nonzero"/></g></g></svg>