<svg xmlns="http://www.w3.org/2000/svg" xmlns:xlink="http://www.w3.org/1999/xlink" width="100" zoomAndPan="magnify" viewBox="0 0 75 74.999997" height="100" preserveAspectRatio="xMidYMid meet" version="1.0"><defs><clipPath id="663bea0636"><path d="M 0 0 L 74.878906 0 L 74.878906 74.878906 L 0 74.878906 Z M 0 0 " clip-rule="nonzero"/></clipPath><clipPath id="31d30b08fb"><rect x="0" width="75" y="0" height="75"/></clipPath></defs><g transform="matrix(1, 0, 0, 1, 0, -0.000000000000001893)"><g clip-path="url(#31d30b08fb)"><g clip-path="url(#663bea0636)"><path fill="#ffde59" d="M 47.769531 19.910156 C 47.601562 19.851562 43.597656 18.40625 40.195312 15.003906 C 39.53125 14.339844 33.765625 8.476562 35.425781 6.8125 C 35.636719 6.601562 35.910156 6.511719 36.230469 6.511719 C 38.476562 6.511719 43.039062 11 43.617188 11.582031 C 47.019531 14.984375 48.46875 18.984375 48.527344 19.152344 C 48.605469 19.367188 48.550781 19.609375 48.386719 19.773438 C 48.226562 19.933594 47.984375 19.988281 47.769531 19.910156 Z M 42.777344 12.421875 C 39.542969 9.1875 36.996094 7.703125 36.300781 7.683594 C 36.320312 8.378906 37.804688 10.929688 41.035156 14.164062 C 43.078125 16.207031 45.398438 17.519531 46.824219 18.207031 C 46.136719 16.785156 44.824219 14.464844 42.777344 12.421875 Z M 19.988281 49.40625 C 19.820312 49.34375 15.816406 47.898438 12.414062 44.496094 C 11.753906 43.832031 5.984375 37.96875 7.648438 36.304688 C 7.855469 36.097656 8.128906 36.003906 8.449219 36.003906 C 10.695312 36.003906 15.257812 40.492188 15.839844 41.074219 C 19.242188 44.476562 20.6875 48.476562 20.746094 48.644531 C 20.824219 48.863281 20.769531 49.101562 20.605469 49.265625 C 20.445312 49.425781 20.203125 49.480469 19.988281 49.40625 Z M 15 41.914062 C 11.765625 38.679688 9.214844 37.199219 8.519531 37.175781 C 8.539062 37.871094 10.023438 40.421875 13.253906 43.65625 C 15.300781 45.699219 17.621094 47.011719 19.042969 47.699219 C 18.355469 46.277344 17.042969 43.957031 15 41.914062 Z M 74.402344 34.160156 C 74.105469 35.140625 73.441406 35.945312 72.539062 36.429688 C 71.445312 37.015625 70.191406 37.136719 69.003906 36.777344 C 67.816406 36.417969 66.839844 35.617188 66.253906 34.523438 C 65.101562 32.367188 64.632812 30.425781 64.773438 28.414062 C 64.914062 26.472656 65.589844 24.40625 66.789062 22.277344 C 67.054688 21.808594 67.335938 21.34375 67.621094 20.875 C 68.710938 19.082031 69.738281 17.390625 69.773438 15.476562 C 69.792969 14.53125 69.558594 13.492188 69.035156 12.207031 C 68.605469 11.160156 67.902344 10.253906 67.152344 9.296875 C 66.550781 8.527344 65.925781 7.726562 65.449219 6.835938 C 64.863281 5.742188 64.738281 4.484375 65.101562 3.296875 C 65.460938 2.109375 66.261719 1.132812 67.355469 0.550781 C 67.929688 0.242188 68.546875 0.0976562 69.15625 0.0976562 C 70.527344 0.0976562 71.855469 0.832031 72.542969 2.121094 C 73.371094 3.671875 72.785156 5.605469 71.234375 6.433594 C 70.609375 6.769531 69.886719 6.839844 69.203125 6.636719 C 68.523438 6.429688 67.960938 5.96875 67.625 5.339844 C 67.34375 4.808594 67.28125 4.199219 67.457031 3.625 C 67.632812 3.046875 68.019531 2.574219 68.550781 2.289062 C 69.003906 2.046875 69.523438 2 70.015625 2.144531 C 70.503906 2.296875 70.910156 2.625 71.152344 3.078125 C 71.359375 3.46875 71.402344 3.917969 71.273438 4.339844 C 71.148438 4.765625 70.859375 5.113281 70.472656 5.320312 C 70.128906 5.5 69.738281 5.539062 69.371094 5.429688 C 69.363281 5.425781 69.355469 5.425781 69.347656 5.421875 C 69.414062 5.453125 69.480469 5.476562 69.550781 5.496094 C 69.925781 5.613281 70.328125 5.574219 70.675781 5.386719 C 71.648438 4.867188 72.015625 3.65625 71.496094 2.683594 C 70.808594 1.394531 69.203125 0.910156 67.914062 1.597656 C 67.101562 2.03125 66.503906 2.757812 66.238281 3.640625 C 65.96875 4.523438 66.0625 5.460938 66.496094 6.273438 C 66.925781 7.078125 67.492188 7.800781 68.089844 8.566406 C 68.855469 9.542969 69.644531 10.558594 70.132812 11.757812 C 70.71875 13.199219 70.984375 14.386719 70.964844 15.5 C 70.921875 17.730469 69.761719 19.644531 68.636719 21.492188 C 68.359375 21.949219 68.082031 22.402344 67.824219 22.859375 C 66.714844 24.835938 66.085938 26.730469 65.960938 28.5 C 65.832031 30.277344 66.261719 32.015625 67.300781 33.964844 C 67.738281 34.777344 68.464844 35.375 69.347656 35.640625 C 70.230469 35.910156 71.164062 35.816406 71.980469 35.382812 C 73.265625 34.695312 73.753906 33.085938 73.066406 31.800781 C 72.546875 30.828125 71.332031 30.460938 70.363281 30.980469 C 69.933594 31.210938 69.664062 31.617188 69.597656 32.0625 C 69.699219 31.703125 69.945312 31.378906 70.304688 31.1875 C 71.109375 30.757812 72.113281 31.0625 72.542969 31.867188 C 73.042969 32.800781 72.691406 33.96875 71.753906 34.46875 C 70.660156 35.054688 69.292969 34.636719 68.707031 33.542969 C 68.011719 32.246094 68.503906 30.625 69.800781 29.933594 C 71.351562 29.101562 73.285156 29.691406 74.113281 31.238281 C 74.597656 32.144531 74.699219 33.179688 74.402344 34.160156 Z M 69.566406 4.167969 C 69.609375 4.25 69.679688 4.28125 69.714844 4.292969 C 69.734375 4.296875 69.761719 4.300781 69.789062 4.300781 C 69.804688 4.300781 69.816406 4.300781 69.828125 4.300781 C 69.722656 4.257812 69.632812 4.183594 69.566406 4.085938 C 69.550781 4.109375 69.550781 4.140625 69.566406 4.167969 Z M 70.757812 32.582031 C 70.769531 32.601562 70.796875 32.617188 70.824219 32.621094 C 70.78125 32.515625 70.773438 32.398438 70.792969 32.289062 C 70.722656 32.367188 70.707031 32.484375 70.757812 32.582031 Z M 2.664062 66.578125 C 4.796875 65.378906 6.730469 64.863281 8.738281 64.960938 C 10.6875 65.054688 12.765625 65.6875 14.921875 66.839844 C 15.394531 67.089844 15.867188 67.363281 16.339844 67.636719 C 18.148438 68.683594 19.859375 69.671875 21.765625 69.671875 C 21.769531 69.671875 21.777344 69.671875 21.785156 69.671875 C 22.730469 69.667969 23.765625 69.40625 25.039062 68.855469 C 26.078125 68.40625 26.964844 67.679688 27.90625 66.910156 C 28.664062 66.289062 29.449219 65.648438 30.328125 65.148438 C 31.035156 64.753906 31.816406 64.550781 32.601562 64.550781 C 33.023438 64.550781 33.441406 64.605469 33.859375 64.722656 C 35.050781 65.054688 36.046875 65.832031 36.65625 66.914062 C 37.160156 67.804688 37.285156 68.839844 37.007812 69.828125 C 36.734375 70.8125 36.089844 71.632812 35.199219 72.136719 C 33.667969 73 31.722656 72.457031 30.859375 70.925781 C 30.136719 69.644531 30.589844 68.015625 31.871094 67.292969 C 32.394531 66.996094 33.003906 66.921875 33.585938 67.085938 C 34.164062 67.246094 34.644531 67.625 34.941406 68.148438 C 35.195312 68.597656 35.257812 69.113281 35.117188 69.609375 C 34.980469 70.101562 34.660156 70.515625 34.210938 70.765625 C 33.828125 70.984375 33.378906 71.035156 32.953125 70.917969 C 32.527344 70.800781 32.171875 70.523438 31.957031 70.136719 C 31.757812 69.78125 31.722656 69.378906 31.832031 69.019531 C 31.648438 69.429688 31.65625 69.921875 31.894531 70.34375 C 32.433594 71.304688 33.65625 71.644531 34.617188 71.101562 C 35.230469 70.753906 35.675781 70.1875 35.863281 69.507812 C 36.054688 68.828125 35.96875 68.113281 35.621094 67.5 C 35.167969 66.695312 34.425781 66.113281 33.539062 65.867188 C 32.648438 65.621094 31.714844 65.730469 30.914062 66.183594 C 30.121094 66.632812 29.410156 67.214844 28.660156 67.828125 C 27.695312 68.617188 26.703125 69.429688 25.511719 69.945312 C 24.085938 70.5625 22.902344 70.855469 21.789062 70.859375 C 21.78125 70.859375 21.773438 70.859375 21.765625 70.859375 C 19.542969 70.859375 17.613281 69.742188 15.746094 68.664062 C 15.28125 68.398438 14.824219 68.132812 14.359375 67.886719 C 12.363281 66.820312 10.453125 66.234375 8.679688 66.148438 C 6.898438 66.0625 5.175781 66.527344 3.25 67.613281 C 2.445312 68.066406 1.867188 68.804688 1.617188 69.695312 C 1.371094 70.585938 1.484375 71.515625 1.9375 72.320312 C 2.285156 72.9375 2.847656 73.378906 3.53125 73.570312 C 4.210938 73.761719 4.925781 73.671875 5.539062 73.324219 C 6.5 72.785156 6.839844 71.5625 6.300781 70.605469 C 6.0625 70.183594 5.648438 69.921875 5.199219 69.863281 C 5.5625 69.960938 5.890625 70.195312 6.089844 70.550781 C 6.539062 71.347656 6.257812 72.359375 5.460938 72.804688 C 5.015625 73.058594 4.496094 73.121094 4.003906 72.984375 C 3.507812 72.84375 3.097656 72.523438 2.84375 72.078125 C 2.550781 71.550781 2.476562 70.945312 2.636719 70.363281 C 2.796875 69.785156 3.175781 69.304688 3.699219 69.007812 C 4.320312 68.65625 5.039062 68.570312 5.726562 68.761719 C 6.414062 68.953125 6.984375 69.398438 7.335938 70.019531 C 8.199219 71.550781 7.65625 73.5 6.125 74.359375 C 5.230469 74.863281 4.195312 74.988281 3.210938 74.714844 C 2.226562 74.441406 1.402344 73.796875 0.902344 72.90625 C 0.292969 71.824219 0.140625 70.570312 0.472656 69.375 C 0.804688 68.179688 1.585938 67.1875 2.664062 66.578125 Z M 33.167969 69.203125 C 33.144531 69.191406 33.113281 69.191406 33.089844 69.207031 C 32.992188 69.261719 32.945312 69.367188 32.960938 69.472656 C 33.003906 69.367188 33.074219 69.273438 33.167969 69.203125 Z M 4.707031 71.039062 C 4.6875 71.050781 4.671875 71.078125 4.667969 71.105469 C 4.777344 71.058594 4.890625 71.046875 5 71.066406 C 4.921875 71 4.804688 70.984375 4.707031 71.039062 Z M 62.636719 37.398438 C 62.617188 37.441406 62.589844 37.480469 62.5625 37.519531 C 62.542969 37.542969 62.53125 37.570312 62.511719 37.589844 C 62.476562 37.628906 62.429688 37.652344 62.386719 37.679688 C 62.363281 37.695312 62.347656 37.714844 62.320312 37.722656 C 62.296875 37.734375 62.265625 37.734375 62.238281 37.742188 C 62.191406 37.753906 62.144531 37.769531 62.097656 37.769531 C 62.09375 37.769531 62.089844 37.773438 62.085938 37.773438 C 48.757812 37.773438 37.910156 48.859375 37.910156 62.484375 C 37.910156 62.492188 37.90625 62.5 37.90625 62.507812 C 37.902344 62.550781 37.890625 62.589844 37.878906 62.632812 C 37.871094 62.667969 37.867188 62.703125 37.851562 62.734375 C 37.835938 62.765625 37.8125 62.792969 37.792969 62.820312 C 37.769531 62.855469 37.746094 62.890625 37.714844 62.917969 C 37.691406 62.941406 37.660156 62.957031 37.628906 62.976562 C 37.59375 63 37.558594 63.023438 37.519531 63.039062 C 37.480469 63.050781 37.441406 63.058594 37.402344 63.0625 C 37.371094 63.066406 37.347656 63.078125 37.316406 63.078125 L 0.621094 63.078125 C 0.292969 63.078125 0.0273438 62.8125 0.0273438 62.484375 C 0.0273438 57.957031 3.710938 54.269531 8.242188 54.269531 L 24.324219 54.269531 C 24.304688 53.855469 24.296875 53.464844 24.296875 53.097656 C 24.296875 36.710938 37.53125 23.367188 53.871094 23.171875 L 53.871094 8.191406 C 53.871094 3.664062 57.558594 -0.0234375 62.085938 -0.0234375 C 62.246094 -0.0234375 62.394531 0.0390625 62.507812 0.152344 C 62.617188 0.261719 62.679688 0.414062 62.679688 0.570312 L 62.679688 37.179688 C 62.679688 37.207031 62.667969 37.234375 62.664062 37.261719 C 62.65625 37.308594 62.652344 37.355469 62.636719 37.398438 Z M 25.484375 53.097656 C 25.484375 53.464844 25.492188 53.851562 25.511719 54.269531 L 28.84375 54.269531 C 29.570312 54.269531 30.21875 53.78125 30.421875 53.078125 C 32.007812 47.578125 34.996094 42.625 38.945312 38.664062 L 33.5625 33.144531 C 28.566406 38.320312 25.484375 45.355469 25.484375 53.097656 Z M 53.871094 24.351562 C 46.332031 24.445312 39.488281 27.460938 34.40625 32.308594 L 39.800781 37.835938 C 43.457031 34.414062 47.859375 31.808594 52.699219 30.34375 C 52.789062 30.320312 52.871094 30.285156 52.953125 30.246094 C 53.511719 29.972656 53.871094 29.410156 53.871094 28.773438 Z M 61.492188 35.800781 L 61.492188 1.191406 C 57.894531 1.492188 55.058594 4.519531 55.058594 8.191406 L 55.058594 28.773438 C 55.058594 29.058594 55.011719 29.335938 54.933594 29.601562 C 54.8125 30 54.601562 30.359375 54.328125 30.664062 C 54.089844 30.925781 53.804688 31.152344 53.476562 31.3125 C 53.339844 31.378906 53.195312 31.4375 53.042969 31.484375 C 48.199219 32.945312 43.804688 35.597656 40.199219 39.089844 C 40.199219 39.09375 40.199219 39.09375 40.199219 39.09375 C 40.195312 39.09375 40.195312 39.09375 40.195312 39.09375 C 36.179688 42.984375 33.148438 47.914062 31.5625 53.40625 C 31.46875 53.734375 31.316406 54.03125 31.121094 54.296875 C 30.882812 54.621094 30.578125 54.886719 30.230469 55.085938 C 29.816406 55.320312 29.339844 55.457031 28.84375 55.457031 L 8.242188 55.457031 C 4.566406 55.457031 1.542969 58.292969 1.238281 61.890625 L 36.726562 61.890625 C 36.734375 61.570312 36.753906 61.25 36.773438 60.933594 C 37.535156 47.859375 47.832031 37.371094 60.644531 36.632812 C 60.925781 36.617188 61.207031 36.597656 61.492188 36.589844 Z M 48.71875 47.214844 C 51.457031 44.78125 54.628906 43.351562 57.644531 43.195312 C 57.839844 43.183594 58.03125 43.179688 58.222656 43.179688 C 61.289062 43.179688 64.054688 44.472656 66.246094 46.941406 C 70.984375 52.265625 72.382812 72.324219 72.441406 73.171875 C 72.453125 73.355469 72.378906 73.535156 72.242188 73.65625 C 72.105469 73.777344 71.921875 73.832031 71.738281 73.796875 C 70.902344 73.640625 51.144531 69.917969 46.40625 64.59375 C 41.855469 59.476562 42.785156 52.496094 48.71875 47.214844 Z M 47.292969 63.800781 C 51.261719 68.261719 67.476562 71.734375 71.195312 72.480469 C 70.886719 68.699219 69.328125 52.191406 65.359375 47.730469 C 63.277344 45.386719 60.632812 44.230469 57.707031 44.382812 C 54.957031 44.523438 52.046875 45.847656 49.511719 48.105469 C 45.011719 52.105469 42.585938 58.511719 47.292969 63.800781 Z M 51.800781 50.085938 C 51.890625 50.085938 51.976562 50.105469 52.0625 50.144531 L 59.726562 53.847656 C 61.34375 54.628906 62.65625 55.949219 63.453125 57.546875 C 63.605469 57.855469 63.746094 58.167969 63.859375 58.492188 L 66.644531 66.535156 C 66.722656 66.765625 66.65625 67.015625 66.476562 67.175781 C 66.296875 67.335938 66.039062 67.371094 65.824219 67.265625 L 58.15625 63.5625 C 57.800781 63.390625 57.460938 63.183594 57.136719 62.960938 C 55.707031 61.984375 54.597656 60.566406 54.027344 58.921875 L 51.824219 52.558594 L 51.242188 50.875 C 51.222656 50.820312 51.210938 50.761719 51.207031 50.703125 C 51.203125 50.527344 51.273438 50.355469 51.40625 50.238281 C 51.519531 50.136719 51.660156 50.085938 51.800781 50.085938 Z M 54.746094 57.371094 L 55.136719 58.492188 L 55.148438 58.53125 C 55.222656 58.742188 55.308594 58.949219 55.398438 59.152344 C 55.429688 59.214844 55.464844 59.273438 55.492188 59.335938 C 55.5625 59.472656 55.628906 59.609375 55.707031 59.742188 C 55.75 59.816406 55.800781 59.886719 55.847656 59.960938 C 55.921875 60.074219 55.992188 60.191406 56.070312 60.300781 C 56.125 60.375 56.1875 60.445312 56.242188 60.519531 C 56.324219 60.621094 56.398438 60.722656 56.484375 60.816406 C 56.546875 60.890625 56.617188 60.960938 56.683594 61.03125 C 56.769531 61.121094 56.855469 61.210938 56.945312 61.296875 C 57.019531 61.363281 57.09375 61.429688 57.171875 61.496094 C 57.261719 61.574219 57.351562 61.652344 57.449219 61.726562 C 57.53125 61.789062 57.613281 61.847656 57.699219 61.910156 C 57.796875 61.976562 57.890625 62.046875 57.992188 62.109375 C 58.082031 62.167969 58.171875 62.21875 58.265625 62.269531 C 58.335938 62.308594 58.40625 62.347656 58.476562 62.386719 C 58.542969 62.421875 58.605469 62.460938 58.671875 62.492188 L 59.886719 63.078125 L 65.050781 65.574219 L 63.175781 60.152344 L 62.734375 58.882812 C 62.710938 58.808594 62.675781 58.742188 62.652344 58.671875 C 62.621094 58.59375 62.589844 58.515625 62.554688 58.4375 C 62.515625 58.34375 62.476562 58.253906 62.433594 58.164062 C 62.382812 58.050781 62.320312 57.945312 62.261719 57.835938 C 62.214844 57.75 62.167969 57.664062 62.117188 57.578125 C 62.054688 57.472656 61.984375 57.371094 61.914062 57.265625 C 61.859375 57.1875 61.804688 57.105469 61.746094 57.023438 C 61.671875 56.925781 61.589844 56.828125 61.511719 56.734375 C 61.449219 56.660156 61.390625 56.582031 61.328125 56.511719 C 61.238281 56.417969 61.148438 56.328125 61.054688 56.234375 C 60.988281 56.171875 60.925781 56.101562 60.859375 56.039062 C 60.757812 55.949219 60.652344 55.867188 60.550781 55.78125 C 60.480469 55.726562 60.417969 55.667969 60.347656 55.613281 C 60.230469 55.527344 60.109375 55.449219 59.984375 55.367188 C 59.921875 55.324219 59.859375 55.277344 59.796875 55.238281 C 59.632812 55.140625 59.460938 55.046875 59.289062 54.960938 C 59.261719 54.949219 59.238281 54.933594 59.210938 54.917969 L 52.832031 51.839844 Z M 54.746094 57.371094 " fill-opacity="1" fill-rule="nonzero"/></g><path fill="#ffcc00" d="M 46.152344 21.832031 C 45.910156 21.863281 40.167969 22.613281 38.476562 22.417969 C 37.597656 22.316406 36.78125 22.050781 36.175781 21.671875 C 35.445312 21.207031 35.078125 20.613281 35.152344 19.992188 C 35.265625 18.988281 36.511719 18.335938 38.171875 18.335938 C 38.421875 18.335938 38.675781 18.347656 38.941406 18.378906 C 40.632812 18.574219 46.054688 20.601562 46.285156 20.6875 C 46.539062 20.78125 46.699219 21.039062 46.667969 21.3125 C 46.636719 21.582031 46.421875 21.796875 46.152344 21.832031 Z M 38.804688 19.558594 C 37.261719 19.382812 36.359375 19.882812 36.332031 20.125 C 36.320312 20.230469 36.464844 20.445312 36.8125 20.667969 C 37.261719 20.949219 37.917969 21.15625 38.613281 21.238281 C 38.769531 21.253906 38.972656 21.265625 39.210938 21.265625 C 40.253906 21.265625 41.980469 21.109375 43.503906 20.949219 C 41.726562 20.332031 39.640625 19.65625 38.804688 19.558594 Z M 49.699219 18.277344 C 49.433594 18.308594 49.171875 18.152344 49.074219 17.898438 C 48.988281 17.667969 46.960938 12.246094 46.765625 10.554688 C 46.664062 9.671875 46.738281 8.816406 46.972656 8.144531 C 47.257812 7.324219 47.757812 6.832031 48.378906 6.761719 C 48.429688 6.757812 48.476562 6.753906 48.523438 6.753906 C 49.617188 6.753906 50.582031 8.148438 50.804688 10.089844 C 51 11.78125 50.253906 17.523438 50.21875 17.765625 C 50.183594 18.035156 49.96875 18.246094 49.699219 18.277344 Z M 49.625 10.226562 C 49.449219 8.683594 48.769531 7.925781 48.511719 7.941406 C 48.425781 7.953125 48.238281 8.121094 48.097656 8.535156 C 47.921875 9.035156 47.867188 9.722656 47.949219 10.417969 C 48.042969 11.253906 48.71875 13.339844 49.335938 15.117188 C 49.535156 13.246094 49.722656 11.058594 49.625 10.226562 Z M 18.371094 51.324219 C 18.128906 51.359375 12.390625 52.105469 10.699219 51.910156 C 9.816406 51.8125 9 51.546875 8.398438 51.164062 C 7.664062 50.703125 7.300781 50.105469 7.371094 49.484375 C 7.484375 48.480469 8.734375 47.828125 10.390625 47.828125 C 10.640625 47.828125 10.898438 47.84375 11.160156 47.871094 C 12.851562 48.066406 18.273438 50.09375 18.503906 50.179688 C 18.757812 50.277344 18.917969 50.535156 18.886719 50.804688 C 18.855469 51.074219 18.644531 51.289062 18.371094 51.324219 Z M 11.023438 49.054688 C 9.480469 48.875 8.578125 49.375 8.550781 49.621094 C 8.539062 49.726562 8.683594 49.941406 9.03125 50.160156 C 9.480469 50.441406 10.136719 50.652344 10.832031 50.730469 C 10.988281 50.75 11.191406 50.757812 11.433594 50.757812 C 12.472656 50.757812 14.203125 50.605469 15.722656 50.441406 C 13.945312 49.824219 11.859375 49.148438 11.023438 49.054688 Z M 21.917969 47.773438 C 21.652344 47.804688 21.390625 47.644531 21.292969 47.390625 C 21.207031 47.160156 19.179688 41.738281 18.984375 40.046875 C 18.886719 39.167969 18.957031 38.3125 19.191406 37.636719 C 19.476562 36.816406 19.976562 36.328125 20.597656 36.257812 C 20.648438 36.25 20.695312 36.246094 20.746094 36.246094 C 21.835938 36.246094 22.804688 37.640625 23.027344 39.582031 C 23.21875 41.277344 22.472656 47.015625 22.441406 47.257812 C 22.40625 47.53125 22.191406 47.742188 21.917969 47.773438 Z M 21.84375 39.71875 C 21.667969 38.175781 21 37.40625 20.734375 37.4375 C 20.644531 37.445312 20.460938 37.613281 20.316406 38.027344 C 20.140625 38.527344 20.085938 39.214844 20.167969 39.910156 C 20.261719 40.746094 20.9375 42.832031 21.554688 44.609375 C 21.753906 42.738281 21.941406 40.554688 21.84375 39.71875 Z M 37.714844 62.917969 C 37.691406 62.941406 37.660156 62.957031 37.628906 62.976562 C 37.652344 62.964844 37.679688 62.957031 37.703125 62.9375 C 37.707031 62.933594 37.710938 62.925781 37.714844 62.917969 Z M 36.773438 60.933594 L 31.121094 54.296875 C 30.882812 54.621094 30.578125 54.886719 30.230469 55.085938 L 36.03125 61.890625 L 36.730469 61.890625 C 36.734375 61.570312 36.753906 61.25 36.773438 60.933594 Z M 62.519531 37.585938 C 62.539062 37.566406 62.546875 37.539062 62.5625 37.519531 C 62.542969 37.542969 62.53125 37.570312 62.511719 37.589844 C 62.515625 37.589844 62.515625 37.589844 62.519531 37.585938 Z M 60.644531 36.632812 C 60.925781 36.617188 61.207031 36.597656 61.492188 36.589844 L 61.492188 35.800781 L 54.933594 29.601562 C 54.8125 30 54.601562 30.359375 54.328125 30.664062 Z M 54.027344 58.921875 L 51.824219 52.558594 L 54.027344 58.921875 C 54.59375 60.566406 55.707031 61.984375 57.136719 62.960938 C 55.707031 61.984375 54.597656 60.566406 54.027344 58.921875 Z M 63.175781 60.152344 L 62.734375 58.882812 C 62.710938 58.808594 62.675781 58.742188 62.652344 58.671875 C 62.238281 59.554688 61.667969 60.324219 60.949219 60.964844 C 60.230469 61.601562 59.398438 62.082031 58.476562 62.386719 C 58.542969 62.421875 58.605469 62.460938 58.671875 62.492188 L 59.886719 63.078125 C 60.554688 62.753906 61.179688 62.347656 61.738281 61.851562 C 62.300781 61.351562 62.773438 60.78125 63.175781 60.152344 Z M 59.210938 54.917969 L 52.832031 51.835938 L 58.105469 54.386719 C 57.789062 55.09375 57.328125 55.730469 56.75 56.242188 C 56.171875 56.757812 55.488281 57.144531 54.746094 57.371094 L 55.136719 58.492188 C 56.023438 58.210938 56.847656 57.75 57.542969 57.132812 C 58.238281 56.511719 58.785156 55.746094 59.167969 54.898438 L 59.210938 54.917969 C 59.238281 54.933594 59.261719 54.949219 59.289062 54.960938 C 59.261719 54.949219 59.238281 54.929688 59.210938 54.917969 Z M 51.207031 50.703125 C 51.203125 50.570312 51.242188 50.441406 51.320312 50.335938 C 51.242188 50.441406 51.203125 50.570312 51.207031 50.703125 Z M 51.328125 59.804688 C 50.304688 60.714844 48.734375 60.621094 47.824219 59.601562 C 46.914062 58.578125 47.007812 57.007812 48.027344 56.097656 C 48.488281 55.691406 49.066406 55.46875 49.675781 55.46875 C 49.722656 55.46875 49.773438 55.472656 49.824219 55.472656 C 50.484375 55.511719 51.089844 55.808594 51.53125 56.300781 C 52.441406 57.324219 52.347656 58.894531 51.328125 59.804688 Z M 50.644531 57.09375 C 50.414062 56.835938 50.097656 56.679688 49.753906 56.660156 C 49.410156 56.640625 49.078125 56.753906 48.820312 56.984375 C 48.285156 57.460938 48.238281 58.277344 48.710938 58.8125 C 49.1875 59.34375 50.003906 59.390625 50.539062 58.917969 C 51.070312 58.445312 51.117188 57.625 50.644531 57.09375 Z M 59.074219 51.941406 C 58.410156 51.902344 57.804688 51.609375 57.363281 51.113281 C 56.457031 50.089844 56.546875 48.519531 57.570312 47.609375 C 58.042969 47.191406 58.628906 46.984375 59.21875 46.984375 C 59.902344 46.984375 60.582031 47.265625 61.070312 47.816406 C 61.511719 48.308594 61.734375 48.945312 61.695312 49.609375 C 61.65625 50.269531 61.363281 50.878906 60.867188 51.316406 C 60.371094 51.757812 59.730469 51.980469 59.074219 51.941406 Z M 60.183594 48.605469 C 59.710938 48.074219 58.890625 48.023438 58.359375 48.496094 C 57.828125 48.972656 57.777344 49.789062 58.253906 50.324219 C 58.480469 50.582031 58.796875 50.734375 59.144531 50.753906 C 59.167969 50.757812 59.195312 50.757812 59.21875 50.757812 C 59.535156 50.757812 59.839844 50.640625 60.078125 50.429688 C 60.335938 50.199219 60.488281 49.882812 60.507812 49.539062 C 60.527344 49.195312 60.414062 48.863281 60.183594 48.605469 Z M 60.183594 48.605469 " fill-opacity="1" fill-rule="nonzero"/></g></g></svg>