<svg xmlns="http://www.w3.org/2000/svg" xmlns:xlink="http://www.w3.org/1999/xlink" width="100" zoomAndPan="magnify" viewBox="0 0 75 74.999997" height="100" preserveAspectRatio="xMidYMid meet" version="1.0"><defs><clipPath id="e73219e8fe"><path d="M 0 24.273438 L 75 24.273438 L 75 50.523438 L 0 50.523438 Z M 0 24.273438 " clip-rule="nonzero"/></clipPath><clipPath id="21f4b26d13"><path d="M 0 0.472656 L 75 0.472656 L 75 15 L 0 15 Z M 0 0.472656 " clip-rule="nonzero"/></clipPath><clipPath id="7c3257a325"><path d="M 0 0.472656 L 75 0.472656 L 75 26.523438 L 0 26.523438 Z M 0 0.472656 " clip-rule="nonzero"/></clipPath><clipPath id="96168f69ed"><rect x="0" width="75" y="0" height="27"/></clipPath></defs><g clip-path="url(#e73219e8fe)"><g transform="matrix(1, 0, 0, 1, 0, 24)"><g clip-path="url(#96168f69ed)"><g clip-path="url(#21f4b26d13)"><path fill="#ffde59" d="M 74.933594 10.148438 C 74.867188 10.332031 74.695312 10.457031 74.503906 10.472656 L 66.402344 10.957031 L 66.082031 10.976562 C 62.46875 11.1875 58.921875 9.042969 56.347656 5.078125 L 54.007812 1.472656 C 52.761719 1.34375 51.457031 1.246094 50.175781 1.320312 C 48.304688 1.425781 46.589844 2.257812 45.339844 3.65625 C 44.09375 5.054688 43.464844 6.851562 43.574219 8.722656 C 43.746094 11.761719 46.363281 14.085938 49.394531 13.914062 C 50.542969 13.847656 51.601562 13.339844 52.367188 12.476562 C 53.132812 11.617188 53.519531 10.511719 53.453125 9.359375 C 53.347656 7.515625 51.761719 6.09375 49.914062 6.203125 C 49.226562 6.242188 48.59375 6.550781 48.132812 7.066406 C 47.671875 7.582031 47.441406 8.242188 47.480469 8.933594 C 47.542969 10.019531 48.480469 10.855469 49.5625 10.789062 C 50.375 10.742188 51 10.042969 50.953125 9.226562 C 50.917969 8.628906 50.40625 8.175781 49.808594 8.203125 C 49.601562 8.214844 49.414062 8.308594 49.277344 8.460938 C 49.140625 8.613281 49.070312 8.8125 49.082031 9.019531 C 49.089844 9.15625 49.152344 9.285156 49.253906 9.378906 C 49.359375 9.46875 49.492188 9.519531 49.628906 9.507812 C 49.910156 9.496094 50.128906 9.699219 50.144531 9.964844 C 50.160156 10.234375 49.953125 10.464844 49.6875 10.480469 C 48.859375 10.523438 48.15625 9.898438 48.109375 9.074219 C 48.082031 8.609375 48.238281 8.160156 48.546875 7.8125 C 48.859375 7.464844 49.285156 7.257812 49.75 7.230469 C 50.867188 7.164062 51.863281 8.035156 51.925781 9.171875 C 52.003906 10.523438 50.96875 11.683594 49.617188 11.761719 C 47.992188 11.863281 46.601562 10.609375 46.507812 8.988281 C 46.453125 8.039062 46.773438 7.125 47.40625 6.417969 C 48.039062 5.707031 48.910156 5.285156 49.859375 5.230469 C 52.242188 5.097656 54.292969 6.921875 54.425781 9.304688 C 54.507812 10.714844 54.035156 12.074219 53.09375 13.128906 C 52.15625 14.179688 50.859375 14.804688 49.449219 14.886719 C 47.726562 14.984375 46.054688 14.40625 44.761719 13.25 C 43.464844 12.097656 42.699219 10.511719 42.601562 8.78125 C 42.480469 6.648438 43.195312 4.597656 44.613281 3.007812 C 46.035156 1.414062 47.988281 0.46875 50.121094 0.347656 C 50.453125 0.328125 50.78125 0.320312 51.113281 0.320312 C 52.289062 0.320312 53.457031 0.425781 54.558594 0.546875 C 54.578125 0.550781 54.589844 0.558594 54.609375 0.5625 L 61.390625 0.5625 C 63.742188 0.5625 66.054688 1.550781 68.078125 3.417969 L 68.125 3.460938 L 74.804688 9.625 C 74.945312 9.757812 74.996094 9.964844 74.933594 10.148438 Z M 67.417969 4.132812 C 67.164062 3.898438 66.90625 3.683594 66.644531 3.480469 C 65.003906 2.207031 63.203125 1.539062 61.390625 1.539062 L 55.210938 1.539062 L 57.164062 4.546875 C 59.300781 7.839844 62.125 9.773438 65.039062 9.988281 C 65.367188 10.015625 65.695312 10.023438 66.023438 10.003906 L 66.523438 9.972656 L 67.253906 9.929688 L 73.300781 9.566406 Z M 30.238281 13.25 C 28.945312 14.40625 27.28125 14.988281 25.550781 14.886719 C 24.140625 14.804688 22.84375 14.179688 21.902344 13.128906 C 20.964844 12.074219 20.492188 10.714844 20.570312 9.304688 C 20.636719 8.152344 21.148438 7.089844 22.011719 6.320312 C 22.875 5.550781 23.988281 5.164062 25.140625 5.230469 C 26.089844 5.285156 26.960938 5.707031 27.59375 6.417969 C 28.226562 7.125 28.546875 8.039062 28.492188 8.988281 C 28.398438 10.609375 27.011719 11.851562 25.382812 11.761719 C 24.03125 11.683594 22.996094 10.523438 23.070312 9.171875 C 23.101562 8.621094 23.347656 8.117188 23.757812 7.75 C 24.167969 7.382812 24.703125 7.199219 25.246094 7.230469 C 26.207031 7.285156 26.945312 8.113281 26.890625 9.074219 C 26.84375 9.898438 26.132812 10.53125 25.3125 10.480469 C 25.042969 10.464844 24.839844 10.234375 24.855469 9.964844 C 24.871094 9.699219 25.085938 9.496094 25.367188 9.507812 C 25.503906 9.519531 25.640625 9.46875 25.746094 9.378906 C 25.847656 9.285156 25.910156 9.15625 25.917969 9.019531 C 25.929688 8.8125 25.859375 8.617188 25.722656 8.460938 C 25.585938 8.308594 25.398438 8.214844 25.191406 8.203125 C 24.902344 8.1875 24.625 8.285156 24.40625 8.476562 C 24.191406 8.671875 24.0625 8.9375 24.046875 9.226562 C 24 10.042969 24.625 10.742188 25.4375 10.789062 C 26.527344 10.851562 27.457031 10.019531 27.519531 8.933594 C 27.558594 8.242188 27.324219 7.582031 26.867188 7.066406 C 26.40625 6.550781 25.773438 6.242188 25.085938 6.203125 C 24.191406 6.152344 23.328125 6.453125 22.660156 7.050781 C 21.992188 7.644531 21.59375 8.464844 21.542969 9.359375 C 21.480469 10.511719 21.863281 11.617188 22.632812 12.476562 C 23.398438 13.339844 24.453125 13.847656 25.605469 13.914062 C 27.082031 13.996094 28.492188 13.503906 29.589844 12.523438 C 30.6875 11.542969 31.339844 10.195312 31.425781 8.722656 C 31.53125 6.855469 30.90625 5.054688 29.65625 3.65625 C 28.410156 2.257812 26.695312 1.425781 24.824219 1.320312 C 23.539062 1.246094 22.234375 1.34375 20.992188 1.472656 L 18.652344 5.078125 C 16.078125 9.042969 12.53125 11.1875 8.914062 10.976562 L 8.597656 10.957031 L 0.496094 10.472656 C 0.300781 10.457031 0.132812 10.332031 0.0664062 10.148438 C 0 9.964844 0.0507812 9.757812 0.195312 9.625 L 6.875 3.460938 L 6.921875 3.417969 C 8.941406 1.550781 11.253906 0.5625 13.609375 0.5625 L 20.390625 0.5625 C 20.40625 0.558594 20.421875 0.550781 20.4375 0.546875 C 21.542969 0.425781 22.710938 0.320312 23.886719 0.320312 C 24.214844 0.320312 24.546875 0.328125 24.878906 0.347656 C 27.007812 0.46875 28.964844 1.414062 30.386719 3.007812 C 31.804688 4.597656 32.519531 6.648438 32.398438 8.78125 C 32.300781 10.511719 31.53125 12.097656 30.238281 13.25 Z M 13.609375 1.539062 C 11.792969 1.539062 9.996094 2.207031 8.355469 3.480469 C 8.09375 3.683594 7.835938 3.898438 7.582031 4.132812 L 1.699219 9.566406 L 7.746094 9.929688 L 8.476562 9.972656 L 8.972656 10.003906 C 9.304688 10.023438 9.632812 10.015625 9.960938 9.988281 C 12.871094 9.773438 15.699219 7.839844 17.832031 4.546875 L 19.785156 1.539062 Z M 13.609375 1.539062 " fill-opacity="1" fill-rule="nonzero"/></g><g clip-path="url(#7c3257a325)"><path fill="#ffcc00" d="M 74.503906 10.472656 L 66.402344 10.957031 Z M 68.125 3.460938 L 74.804688 9.625 Z M 69.722656 6.261719 C 68.804688 7.257812 68.277344 8.515625 68.222656 9.871094 L 73.300781 9.566406 L 67.253906 9.929688 C 67.296875 8.328125 67.925781 6.789062 69.015625 5.605469 L 67.632812 4.332031 L 61.945312 5.09375 L 64.28125 7.816406 C 64.980469 8.636719 65.738281 9.359375 66.523438 9.972656 L 66.023438 10.003906 C 65.695312 10.023438 65.367188 10.015625 65.039062 9.988281 C 64.519531 9.519531 64.015625 9.007812 63.539062 8.453125 L 60.621094 5.046875 C 60.503906 4.910156 60.472656 4.722656 60.535156 4.554688 C 60.597656 4.390625 60.75 4.269531 60.925781 4.246094 L 66.644531 3.480469 C 66.90625 3.683594 67.164062 3.898438 67.417969 4.132812 L 73.300781 9.566406 Z M 39.4375 2.5 C 39.4375 1.429688 38.566406 0.5625 37.5 0.5625 C 36.429688 0.5625 35.5625 1.429688 35.5625 2.5 C 35.5625 3.566406 36.429688 4.4375 37.5 4.4375 C 38.566406 4.4375 39.4375 3.566406 39.4375 2.5 Z M 38.460938 2.5 C 38.460938 3.03125 38.03125 3.460938 37.5 3.460938 C 36.96875 3.460938 36.539062 3.03125 36.539062 2.5 C 36.539062 1.96875 36.96875 1.539062 37.5 1.539062 C 38.03125 1.539062 38.460938 1.96875 38.460938 2.5 Z M 73.945312 2.5 C 73.945312 1.429688 73.078125 0.5625 72.011719 0.5625 C 70.941406 0.5625 70.074219 1.429688 70.074219 2.5 C 70.074219 3.566406 70.941406 4.4375 72.011719 4.4375 C 73.078125 4.4375 73.945312 3.566406 73.945312 2.5 Z M 72.972656 2.5 C 72.972656 3.03125 72.539062 3.460938 72.011719 3.460938 C 71.480469 3.460938 71.046875 3.03125 71.046875 2.5 C 71.046875 1.96875 71.480469 1.539062 72.011719 1.539062 C 72.539062 1.539062 72.972656 1.96875 72.972656 2.5 Z M 8.597656 10.957031 L 0.496094 10.472656 Z M 11.460938 8.453125 C 10.980469 9.007812 10.476562 9.519531 9.960938 9.988281 C 9.632812 10.015625 9.304688 10.023438 8.972656 10.003906 L 8.476562 9.972656 C 9.261719 9.363281 10.015625 8.636719 10.71875 7.816406 L 13.054688 5.09375 L 7.367188 4.332031 L 5.984375 5.605469 C 7.074219 6.789062 7.703125 8.328125 7.746094 9.929688 L 1.699219 9.566406 L 6.777344 9.871094 C 6.722656 8.515625 6.195312 7.257812 5.273438 6.261719 L 1.695312 9.566406 L 7.582031 4.132812 C 7.835938 3.898438 8.09375 3.683594 8.355469 3.480469 L 14.074219 4.246094 C 14.25 4.269531 14.402344 4.386719 14.464844 4.554688 C 14.527344 4.722656 14.496094 4.910156 14.378906 5.046875 Z M 6.875 3.460938 L 0.195312 9.625 Z M 4.925781 2.5 C 4.925781 1.429688 4.058594 0.5625 2.988281 0.5625 C 1.921875 0.5625 1.050781 1.429688 1.050781 2.5 C 1.050781 3.566406 1.921875 4.4375 2.988281 4.4375 C 4.058594 4.4375 4.925781 3.566406 4.925781 2.5 Z M 3.949219 2.5 C 3.949219 3.03125 3.519531 3.460938 2.988281 3.460938 C 2.457031 3.460938 2.027344 3.03125 2.027344 2.5 C 2.027344 1.96875 2.457031 1.539062 2.988281 1.539062 C 3.519531 1.539062 3.949219 1.96875 3.949219 2.5 Z M 37.886719 16.636719 C 37.945312 16.558594 39.300781 14.742188 39.300781 12.457031 C 39.300781 10.175781 37.945312 8.355469 37.886719 8.277344 C 37.796875 8.15625 37.652344 8.085938 37.5 8.085938 C 37.347656 8.085938 37.203125 8.15625 37.109375 8.277344 C 37.054688 8.355469 35.699219 10.175781 35.699219 12.457031 C 35.699219 14.742188 37.054688 16.558594 37.109375 16.636719 C 37.292969 16.878906 37.703125 16.878906 37.886719 16.636719 Z M 38.324219 12.457031 C 38.324219 13.683594 37.855469 14.773438 37.5 15.421875 C 37.144531 14.769531 36.675781 13.675781 36.675781 12.457031 C 36.675781 11.234375 37.144531 10.144531 37.5 9.492188 C 37.855469 10.144531 38.324219 11.238281 38.324219 12.457031 Z M 43.519531 14.070312 C 43.589844 13.914062 43.570312 13.738281 43.476562 13.597656 L 37.902344 5.5 C 37.808594 5.367188 37.660156 5.289062 37.5 5.289062 C 37.339844 5.289062 37.1875 5.367188 37.097656 5.5 L 31.523438 13.597656 C 31.429688 13.738281 31.410156 13.914062 31.476562 14.070312 C 31.800781 14.808594 32.234375 15.105469 32.65625 15.390625 C 32.964844 15.597656 33.28125 15.8125 33.632812 16.246094 L 34.28125 17.050781 C 35.339844 18.367188 36.15625 20.628906 36.582031 23.421875 L 37.019531 26.277344 C 37.054688 26.515625 37.257812 26.691406 37.5 26.691406 C 37.738281 26.691406 37.945312 26.515625 37.980469 26.277344 L 38.417969 23.421875 C 38.84375 20.628906 39.660156 18.367188 40.71875 17.050781 L 41.367188 16.246094 C 41.714844 15.8125 42.035156 15.597656 42.339844 15.390625 C 42.761719 15.105469 43.199219 14.808594 43.519531 14.070312 Z M 42.507812 13.914062 C 42.324219 14.222656 42.101562 14.375 41.796875 14.582031 C 41.460938 14.804688 41.046875 15.085938 40.605469 15.636719 L 39.957031 16.441406 C 38.832031 17.839844 37.964844 20.15625 37.5 22.984375 C 37.035156 20.15625 36.164062 17.839844 35.039062 16.441406 L 34.390625 15.636719 C 33.949219 15.085938 33.535156 14.804688 33.203125 14.582031 C 32.894531 14.375 32.675781 14.222656 32.488281 13.914062 L 37.5 6.636719 Z M 42.507812 13.914062 " fill-opacity="1" fill-rule="nonzero"/></g></g></g></g></svg>