<svg xmlns="http://www.w3.org/2000/svg" xmlns:xlink="http://www.w3.org/1999/xlink" width="100" zoomAndPan="magnify" viewBox="0 0 75 74.999997" height="100" preserveAspectRatio="xMidYMid meet" version="1.0"><defs><clipPath id="11cbf28688"><path d="M 0 36 L 75 36 L 75 50.523438 L 0 50.523438 Z M 0 36 " clip-rule="nonzero"/></clipPath><clipPath id="0894172b4a"><path d="M 0 24.273438 L 75 24.273438 L 75 50.523438 L 0 50.523438 Z M 0 24.273438 " clip-rule="nonzero"/></clipPath></defs><g clip-path="url(#11cbf28688)"><path fill="#ffde59" d="M 74.933594 40.847656 C 74.867188 40.664062 74.695312 40.535156 74.503906 40.523438 L 66.402344 40.039062 L 66.082031 40.019531 C 62.46875 39.804688 58.921875 41.953125 56.347656 45.917969 L 54.007812 49.523438 C 52.761719 49.652344 51.457031 49.75 50.175781 49.675781 C 48.304688 49.566406 46.589844 48.738281 45.339844 47.339844 C 44.09375 45.941406 43.464844 44.140625 43.574219 42.269531 C 43.746094 39.234375 46.363281 36.910156 49.394531 37.082031 C 50.542969 37.144531 51.601562 37.65625 52.367188 38.515625 C 53.132812 39.375 53.519531 40.484375 53.453125 41.632812 C 53.347656 43.480469 51.761719 44.898438 49.914062 44.789062 C 49.226562 44.75 48.59375 44.445312 48.132812 43.929688 C 47.671875 43.414062 47.441406 42.75 47.480469 42.0625 C 47.542969 40.976562 48.480469 40.140625 49.5625 40.207031 C 50.375 40.253906 51 40.953125 50.953125 41.769531 C 50.917969 42.367188 50.40625 42.820312 49.808594 42.789062 C 49.601562 42.777344 49.414062 42.6875 49.277344 42.535156 C 49.140625 42.378906 49.070312 42.183594 49.082031 41.976562 C 49.089844 41.835938 49.152344 41.710938 49.253906 41.617188 C 49.359375 41.523438 49.492188 41.472656 49.628906 41.488281 C 49.910156 41.5 50.128906 41.296875 50.144531 41.027344 C 50.160156 40.757812 49.953125 40.527344 49.6875 40.515625 C 48.859375 40.472656 48.15625 41.097656 48.109375 41.921875 C 48.082031 42.386719 48.238281 42.832031 48.546875 43.183594 C 48.859375 43.53125 49.285156 43.734375 49.75 43.761719 C 50.867188 43.828125 51.863281 42.957031 51.925781 41.824219 C 52.003906 40.472656 50.96875 39.3125 49.617188 39.234375 C 47.992188 39.132812 46.601562 40.382812 46.507812 42.003906 C 46.453125 42.953125 46.773438 43.867188 47.40625 44.578125 C 48.039062 45.289062 48.910156 45.710938 49.859375 45.761719 C 52.242188 45.898438 54.292969 44.074219 54.425781 41.691406 C 54.507812 40.277344 54.035156 38.921875 53.09375 37.867188 C 52.15625 36.8125 50.859375 36.1875 49.449219 36.105469 C 47.726562 36.011719 46.054688 36.589844 44.761719 37.742188 C 43.464844 38.894531 42.699219 40.484375 42.601562 42.214844 C 42.480469 44.34375 43.195312 46.394531 44.613281 47.988281 C 46.035156 49.582031 47.988281 50.527344 50.121094 50.648438 C 50.453125 50.667969 50.78125 50.675781 51.113281 50.675781 C 52.289062 50.675781 53.457031 50.566406 54.558594 50.445312 C 54.578125 50.445312 54.589844 50.433594 54.609375 50.433594 L 61.390625 50.433594 C 63.742188 50.433594 66.054688 49.445312 68.078125 47.578125 L 68.125 47.535156 L 74.804688 41.367188 C 74.945312 41.234375 74.996094 41.03125 74.933594 40.847656 Z M 67.417969 46.863281 C 67.164062 47.097656 66.90625 47.3125 66.644531 47.515625 C 65.003906 48.785156 63.203125 49.457031 61.390625 49.457031 L 55.210938 49.457031 L 57.164062 46.449219 C 59.300781 43.15625 62.125 41.222656 65.039062 41.003906 C 65.367188 40.980469 65.695312 40.972656 66.023438 40.992188 L 66.523438 41.023438 L 67.253906 41.066406 L 73.300781 41.429688 Z M 30.238281 37.742188 C 28.945312 36.589844 27.28125 36.007812 25.550781 36.105469 C 24.140625 36.1875 22.84375 36.8125 21.902344 37.867188 C 20.964844 38.921875 20.492188 40.28125 20.570312 41.691406 C 20.636719 42.84375 21.148438 43.902344 22.011719 44.671875 C 22.875 45.441406 23.988281 45.832031 25.140625 45.761719 C 26.089844 45.710938 26.960938 45.289062 27.59375 44.578125 C 28.226562 43.867188 28.546875 42.953125 28.492188 42.003906 C 28.398438 40.382812 27.011719 39.144531 25.382812 39.234375 C 24.03125 39.3125 22.996094 40.472656 23.070312 41.824219 C 23.101562 42.371094 23.347656 42.878906 23.757812 43.242188 C 24.167969 43.609375 24.703125 43.792969 25.246094 43.761719 C 26.207031 43.707031 26.945312 42.882812 26.890625 41.921875 C 26.84375 41.097656 26.132812 40.464844 25.3125 40.511719 C 25.042969 40.527344 24.839844 40.757812 24.855469 41.027344 C 24.871094 41.296875 25.085938 41.5 25.367188 41.488281 C 25.503906 41.472656 25.640625 41.523438 25.746094 41.617188 C 25.847656 41.710938 25.910156 41.835938 25.917969 41.976562 C 25.929688 42.179688 25.859375 42.378906 25.722656 42.53125 C 25.585938 42.6875 25.398438 42.777344 25.191406 42.789062 C 24.902344 42.808594 24.625 42.710938 24.40625 42.515625 C 24.191406 42.324219 24.0625 42.058594 24.046875 41.769531 C 24 40.953125 24.625 40.253906 25.4375 40.207031 C 26.527344 40.144531 27.457031 40.976562 27.519531 42.0625 C 27.558594 42.75 27.324219 43.414062 26.867188 43.929688 C 26.40625 44.445312 25.773438 44.75 25.085938 44.789062 C 24.191406 44.84375 23.328125 44.542969 22.660156 43.945312 C 21.992188 43.347656 21.59375 42.527344 21.542969 41.632812 C 21.480469 40.484375 21.863281 39.375 22.632812 38.515625 C 23.398438 37.65625 24.453125 37.144531 25.605469 37.082031 C 27.082031 37 28.492188 37.488281 29.589844 38.46875 C 30.6875 39.449219 31.339844 40.800781 31.425781 42.269531 C 31.53125 44.140625 30.90625 45.941406 29.65625 47.339844 C 28.410156 48.738281 26.695312 49.566406 24.824219 49.675781 C 23.539062 49.75 22.234375 49.652344 20.992188 49.523438 L 18.652344 45.917969 C 16.078125 41.953125 12.53125 39.804688 8.914062 40.019531 L 8.597656 40.039062 L 0.496094 40.523438 C 0.300781 40.535156 0.132812 40.664062 0.0664062 40.847656 C 0 41.03125 0.0507812 41.234375 0.195312 41.367188 L 6.875 47.535156 L 6.921875 47.578125 C 8.941406 49.445312 11.253906 50.433594 13.609375 50.433594 L 20.390625 50.433594 C 20.40625 50.433594 20.421875 50.445312 20.4375 50.445312 C 21.542969 50.566406 22.710938 50.675781 23.886719 50.675781 C 24.214844 50.675781 24.546875 50.667969 24.878906 50.648438 C 27.007812 50.527344 28.964844 49.582031 30.386719 47.988281 C 31.804688 46.394531 32.519531 44.34375 32.398438 42.214844 C 32.300781 40.484375 31.53125 38.894531 30.238281 37.742188 Z M 13.609375 49.457031 C 11.792969 49.457031 9.996094 48.785156 8.355469 47.515625 C 8.09375 47.3125 7.835938 47.097656 7.582031 46.863281 L 1.699219 41.429688 L 7.746094 41.066406 L 8.476562 41.023438 L 8.972656 40.992188 C 9.304688 40.972656 9.632812 40.980469 9.960938 41.003906 C 12.871094 41.222656 15.699219 43.15625 17.832031 46.445312 L 19.785156 49.457031 Z M 13.609375 49.457031 " fill-opacity="1" fill-rule="nonzero"/></g><g clip-path="url(#0894172b4a)"><path fill="#ffcc00" d="M 74.503906 40.523438 L 66.402344 40.039062 Z M 68.125 47.535156 L 74.804688 41.367188 Z M 69.722656 44.730469 C 68.804688 43.738281 68.277344 42.476562 68.222656 41.125 L 73.300781 41.429688 L 67.253906 41.066406 C 67.296875 42.667969 67.925781 44.207031 69.015625 45.386719 L 67.632812 46.664062 L 61.945312 45.902344 L 64.28125 43.175781 C 64.980469 42.359375 65.738281 41.632812 66.523438 41.023438 L 66.023438 40.992188 C 65.695312 40.972656 65.367188 40.980469 65.039062 41.003906 C 64.519531 41.476562 64.015625 41.984375 63.539062 42.542969 L 60.621094 45.949219 C 60.503906 46.082031 60.472656 46.273438 60.535156 46.4375 C 60.597656 46.605469 60.75 46.722656 60.925781 46.75 L 66.644531 47.515625 C 66.90625 47.3125 67.164062 47.097656 67.417969 46.863281 L 73.300781 41.429688 Z M 39.4375 48.496094 C 39.4375 49.5625 38.566406 50.433594 37.5 50.433594 C 36.429688 50.433594 35.5625 49.5625 35.5625 48.496094 C 35.5625 47.425781 36.429688 46.558594 37.5 46.558594 C 38.566406 46.558594 39.4375 47.425781 39.4375 48.496094 Z M 38.460938 48.496094 C 38.460938 47.964844 38.03125 47.53125 37.5 47.53125 C 36.96875 47.53125 36.539062 47.964844 36.539062 48.496094 C 36.539062 49.027344 36.96875 49.457031 37.5 49.457031 C 38.03125 49.457031 38.460938 49.027344 38.460938 48.496094 Z M 73.945312 48.496094 C 73.945312 49.5625 73.078125 50.433594 72.011719 50.433594 C 70.941406 50.433594 70.074219 49.5625 70.074219 48.496094 C 70.074219 47.425781 70.941406 46.558594 72.011719 46.558594 C 73.078125 46.558594 73.945312 47.425781 73.945312 48.496094 Z M 72.972656 48.496094 C 72.972656 47.964844 72.539062 47.53125 72.011719 47.53125 C 71.480469 47.53125 71.046875 47.964844 71.046875 48.496094 C 71.046875 49.027344 71.480469 49.457031 72.011719 49.457031 C 72.539062 49.457031 72.972656 49.027344 72.972656 48.496094 Z M 8.597656 40.039062 L 0.496094 40.523438 Z M 11.460938 42.542969 C 10.980469 41.984375 10.476562 41.476562 9.960938 41.003906 C 9.632812 40.980469 9.304688 40.972656 8.972656 40.992188 L 8.476562 41.023438 C 9.261719 41.632812 10.015625 42.355469 10.71875 43.175781 L 13.054688 45.902344 L 7.367188 46.664062 L 5.984375 45.386719 C 7.074219 44.207031 7.703125 42.667969 7.746094 41.066406 L 1.699219 41.429688 L 6.777344 41.125 C 6.722656 42.476562 6.195312 43.738281 5.273438 44.730469 L 1.695312 41.429688 L 7.582031 46.863281 C 7.835938 47.097656 8.09375 47.3125 8.355469 47.515625 L 14.074219 46.75 C 14.25 46.722656 14.402344 46.605469 14.464844 46.4375 C 14.527344 46.273438 14.496094 46.082031 14.378906 45.949219 Z M 6.875 47.535156 L 0.195312 41.367188 Z M 4.925781 48.496094 C 4.925781 49.5625 4.058594 50.433594 2.988281 50.433594 C 1.921875 50.433594 1.050781 49.5625 1.050781 48.496094 C 1.050781 47.425781 1.921875 46.558594 2.988281 46.558594 C 4.058594 46.558594 4.925781 47.425781 4.925781 48.496094 Z M 3.949219 48.496094 C 3.949219 47.964844 3.519531 47.53125 2.988281 47.53125 C 2.457031 47.53125 2.027344 47.964844 2.027344 48.496094 C 2.027344 49.027344 2.457031 49.457031 2.988281 49.457031 C 3.519531 49.457031 3.949219 49.027344 3.949219 48.496094 Z M 37.886719 34.359375 C 37.945312 34.433594 39.300781 36.253906 39.300781 38.535156 C 39.300781 40.820312 37.945312 42.640625 37.886719 42.714844 C 37.796875 42.839844 37.652344 42.910156 37.5 42.910156 C 37.347656 42.910156 37.203125 42.839844 37.109375 42.714844 C 37.054688 42.640625 35.699219 40.820312 35.699219 38.535156 C 35.699219 36.253906 37.054688 34.433594 37.109375 34.359375 C 37.292969 34.113281 37.703125 34.113281 37.886719 34.359375 Z M 38.324219 38.535156 C 38.324219 37.3125 37.855469 36.222656 37.5 35.574219 C 37.144531 36.222656 36.675781 37.316406 36.675781 38.535156 C 36.675781 39.761719 37.144531 40.851562 37.5 41.5 C 37.855469 40.851562 38.324219 39.757812 38.324219 38.535156 Z M 43.519531 36.925781 C 43.589844 37.078125 43.570312 37.257812 43.476562 37.394531 L 37.902344 45.492188 C 37.808594 45.625 37.660156 45.703125 37.5 45.703125 C 37.339844 45.703125 37.1875 45.625 37.097656 45.492188 L 31.523438 37.394531 C 31.429688 37.257812 31.410156 37.078125 31.476562 36.925781 C 31.800781 36.1875 32.234375 35.890625 32.65625 35.605469 C 32.964844 35.398438 33.28125 35.183594 33.632812 34.75 L 34.28125 33.941406 C 35.339844 32.628906 36.15625 30.367188 36.582031 27.574219 L 37.019531 24.714844 C 37.054688 24.476562 37.257812 24.300781 37.5 24.300781 C 37.738281 24.300781 37.945312 24.476562 37.980469 24.714844 L 38.417969 27.574219 C 38.84375 30.367188 39.660156 32.628906 40.71875 33.941406 L 41.367188 34.75 C 41.714844 35.183594 42.035156 35.398438 42.339844 35.605469 C 42.761719 35.890625 43.199219 36.183594 43.519531 36.925781 Z M 42.507812 37.082031 C 42.324219 36.769531 42.101562 36.621094 41.796875 36.414062 C 41.460938 36.1875 41.046875 35.910156 40.605469 35.359375 L 39.957031 34.554688 C 38.832031 33.152344 37.964844 30.835938 37.5 28.007812 C 37.035156 30.835938 36.164062 33.152344 35.039062 34.554688 L 34.390625 35.359375 C 33.949219 35.910156 33.535156 36.1875 33.203125 36.414062 C 32.894531 36.621094 32.675781 36.769531 32.488281 37.082031 L 37.5 44.359375 Z M 42.507812 37.082031 " fill-opacity="1" fill-rule="nonzero"/></g></svg>