<svg xmlns="http://www.w3.org/2000/svg" xmlns:xlink="http://www.w3.org/1999/xlink" width="100" zoomAndPan="magnify" viewBox="0 0 75 74.999997" height="100" preserveAspectRatio="xMidYMid meet" version="1.0"><defs><clipPath id="f8a3e676d2"><path d="M 33 0 L 41.929688 0 L 41.929688 74.996094 L 33 74.996094 Z M 33 0 " clip-rule="nonzero"/></clipPath></defs><path fill="#ffde59" d="M 36.804688 71.230469 L 36.804688 49.761719 C 36.804688 45.082031 40.242188 44.632812 40.390625 44.617188 C 40.503906 44.601562 40.597656 44.519531 40.621094 44.410156 C 40.621094 44.40625 40.621094 44.398438 40.621094 44.394531 C 40.625 44.386719 40.625 44.378906 40.625 44.371094 C 40.625 44.347656 40.625 44.324219 40.621094 44.304688 C 40.621094 44.292969 40.617188 44.277344 40.613281 44.265625 C 40.605469 44.25 40.601562 44.238281 40.59375 44.222656 C 40.585938 44.207031 40.578125 44.195312 40.566406 44.179688 C 40.5625 44.171875 40.554688 44.167969 40.546875 44.160156 C 40.53125 44.148438 40.519531 44.128906 40.5 44.121094 C 39.273438 43.355469 38.3125 42.292969 37.675781 41.0625 C 37.480469 40.679688 37.316406 40.277344 37.1875 39.863281 C 37.644531 39.492188 37.980469 39.003906 38.164062 38.457031 C 38.230469 38.261719 38.28125 38.0625 38.304688 37.855469 C 38.320312 37.734375 38.328125 37.613281 38.328125 37.492188 C 38.328125 37.378906 38.320312 37.265625 38.308594 37.152344 C 38.285156 36.945312 38.234375 36.746094 38.171875 36.550781 C 37.988281 35.996094 37.648438 35.496094 37.1875 35.125 C 37.316406 34.710938 37.480469 34.308594 37.675781 33.925781 C 38.308594 32.691406 39.273438 31.628906 40.5 30.863281 C 40.519531 30.851562 40.535156 30.835938 40.550781 30.820312 C 40.554688 30.8125 40.5625 30.808594 40.566406 30.804688 C 40.578125 30.789062 40.585938 30.773438 40.59375 30.757812 C 40.601562 30.746094 40.605469 30.734375 40.613281 30.71875 C 40.617188 30.707031 40.621094 30.691406 40.621094 30.679688 C 40.625 30.65625 40.625 30.636719 40.625 30.617188 C 40.625 30.605469 40.625 30.597656 40.621094 30.589844 C 40.621094 30.582031 40.621094 30.578125 40.621094 30.574219 C 40.605469 30.507812 40.566406 30.457031 40.515625 30.417969 C 40.476562 30.390625 40.4375 30.371094 40.390625 30.367188 C 40.242188 30.351562 36.804688 29.902344 36.804688 25.222656 L 36.804688 3.738281 C 36.804688 3.589844 36.683594 3.46875 36.535156 3.46875 C 36.390625 3.46875 36.269531 3.589844 36.269531 3.738281 L 36.269531 71.230469 C 36.269531 71.378906 36.390625 71.5 36.535156 71.5 C 36.683594 71.5 36.804688 71.378906 36.804688 71.230469 Z M 37.15625 39.777344 C 37.148438 39.742188 37.136719 39.710938 37.128906 39.679688 C 37.136719 39.710938 37.148438 39.742188 37.15625 39.777344 Z M 37.097656 35.410156 C 37.117188 35.347656 37.132812 35.285156 37.152344 35.226562 C 37.132812 35.285156 37.117188 35.347656 37.097656 35.410156 Z M 36.804688 28.082031 C 37.554688 29.804688 38.917969 30.488281 39.710938 30.75 C 39.007812 31.261719 38.398438 31.871094 37.894531 32.550781 C 37.886719 32.5625 37.878906 32.578125 37.867188 32.589844 C 37.777344 32.714844 37.691406 32.839844 37.609375 32.96875 C 37.59375 32.992188 37.578125 33.019531 37.5625 33.042969 C 37.488281 33.160156 37.414062 33.277344 37.347656 33.402344 C 37.328125 33.433594 37.308594 33.46875 37.292969 33.5 C 37.230469 33.617188 37.167969 33.730469 37.113281 33.847656 C 37.09375 33.886719 37.074219 33.929688 37.054688 33.96875 C 37.003906 34.082031 36.953125 34.195312 36.90625 34.3125 C 36.886719 34.355469 36.871094 34.398438 36.851562 34.445312 C 36.835938 34.484375 36.820312 34.523438 36.804688 34.5625 Z M 37.027344 35.691406 C 37.027344 35.699219 37.023438 35.707031 37.019531 35.71875 C 37.023438 35.707031 37.023438 35.699219 37.027344 35.6875 C 37.027344 35.691406 37.027344 35.691406 37.027344 35.691406 Z M 36.929688 38.832031 C 36.921875 38.777344 36.917969 38.726562 36.90625 38.675781 C 36.894531 38.585938 36.878906 38.5 36.871094 38.414062 C 36.867188 38.378906 36.863281 38.34375 36.859375 38.3125 C 36.855469 38.253906 36.847656 38.195312 36.84375 38.140625 C 36.839844 38.078125 36.832031 38.015625 36.828125 37.953125 C 36.824219 37.898438 36.824219 37.84375 36.824219 37.789062 C 36.816406 37.578125 36.816406 37.363281 36.824219 37.152344 C 36.828125 37.113281 36.824219 37.074219 36.828125 37.035156 C 36.832031 36.980469 36.839844 36.921875 36.84375 36.867188 C 36.847656 36.789062 36.855469 36.710938 36.863281 36.628906 C 36.867188 36.597656 36.871094 36.566406 36.875 36.535156 C 36.882812 36.464844 36.894531 36.398438 36.90625 36.332031 C 36.914062 36.265625 36.921875 36.203125 36.933594 36.136719 C 36.933594 36.144531 36.933594 36.148438 36.929688 36.152344 C 36.933594 36.148438 36.933594 36.140625 36.933594 36.136719 C 36.957031 36.003906 36.984375 35.871094 37.015625 35.738281 C 37.019531 35.722656 37.023438 35.707031 37.027344 35.691406 C 37.242188 35.898438 37.414062 36.144531 37.542969 36.40625 C 37.632812 36.59375 37.699219 36.789062 37.742188 36.996094 C 37.777344 37.15625 37.792969 37.324219 37.792969 37.492188 C 37.792969 37.667969 37.773438 37.84375 37.738281 38.011719 C 37.695312 38.21875 37.625 38.414062 37.53125 38.601562 C 37.40625 38.859375 37.234375 39.09375 37.027344 39.296875 C 37.027344 39.292969 37.023438 39.289062 37.023438 39.285156 C 36.992188 39.140625 36.960938 39 36.933594 38.855469 C 36.933594 38.847656 36.933594 38.839844 36.929688 38.832031 Z M 37.027344 39.289062 C 37.027344 39.292969 37.027344 39.296875 37.027344 39.296875 C 37.027344 39.296875 37.027344 39.292969 37.027344 39.289062 Z M 36.804688 40.421875 C 36.820312 40.460938 36.835938 40.5 36.851562 40.539062 C 36.871094 40.585938 36.886719 40.628906 36.90625 40.671875 C 36.953125 40.789062 37.003906 40.902344 37.058594 41.015625 C 37.074219 41.054688 37.09375 41.09375 37.113281 41.132812 C 37.167969 41.253906 37.230469 41.367188 37.292969 41.484375 C 37.3125 41.515625 37.328125 41.550781 37.347656 41.582031 C 37.414062 41.703125 37.488281 41.824219 37.5625 41.941406 C 37.578125 41.964844 37.59375 41.992188 37.609375 42.015625 C 37.691406 42.144531 37.777344 42.269531 37.867188 42.394531 C 37.878906 42.40625 37.886719 42.417969 37.894531 42.433594 C 38.398438 43.113281 39.007812 43.722656 39.710938 44.234375 C 38.917969 44.496094 37.554688 45.179688 36.804688 46.902344 Z M 35.03125 67.507812 C 34.882812 67.507812 34.761719 67.386719 34.761719 67.238281 L 34.761719 7.730469 C 34.761719 7.582031 34.882812 7.460938 35.03125 7.460938 C 35.175781 7.460938 35.296875 7.582031 35.296875 7.730469 L 35.296875 67.238281 C 35.296875 67.386719 35.175781 67.507812 35.03125 67.507812 Z M 35.03125 67.507812 " fill-opacity="1" fill-rule="nonzero"/><g clip-path="url(#f8a3e676d2)"><path fill="#ffbb59" d="M 34.761719 37.851562 L 34.761719 38.414062 C 33.839844 38.140625 33.222656 37.753906 33.183594 37.730469 C 33.105469 37.679688 33.058594 37.59375 33.058594 37.503906 C 33.058594 37.410156 33.105469 37.328125 33.183594 37.277344 C 33.222656 37.253906 33.839844 36.863281 34.761719 36.589844 L 34.761719 37.152344 C 34.410156 37.269531 34.109375 37.398438 33.890625 37.503906 C 34.109375 37.609375 34.410156 37.738281 34.761719 37.851562 Z M 37.53125 38.601562 C 37.625 38.414062 37.695312 38.21875 37.738281 38.011719 C 37.457031 38.074219 37.15625 38.121094 36.84375 38.140625 C 36.847656 38.195312 36.855469 38.253906 36.859375 38.3125 C 36.863281 38.34375 36.867188 38.378906 36.871094 38.414062 C 36.878906 38.5 36.894531 38.585938 36.90625 38.675781 C 37.121094 38.660156 37.332031 38.632812 37.53125 38.601562 Z M 36.269531 36.863281 L 36.269531 36.328125 C 35.925781 36.34375 35.601562 36.390625 35.296875 36.453125 L 35.296875 37.003906 C 35.597656 36.933594 35.925781 36.882812 36.269531 36.863281 Z M 36.867188 36.578125 C 36.871094 36.5625 36.875 36.546875 36.875 36.535156 C 36.882812 36.488281 36.886719 36.441406 36.890625 36.394531 C 36.882812 36.457031 36.875 36.515625 36.867188 36.578125 Z M 36.90625 36.332031 C 36.894531 36.398438 36.882812 36.464844 36.875 36.535156 C 36.871094 36.566406 36.867188 36.597656 36.863281 36.628906 C 36.855469 36.710938 36.847656 36.789062 36.84375 36.867188 C 37.160156 36.886719 37.460938 36.929688 37.742188 36.996094 C 37.699219 36.789062 37.632812 36.59375 37.542969 36.40625 C 37.335938 36.371094 37.125 36.347656 36.90625 36.332031 Z M 39.890625 37.277344 C 39.847656 37.25 39.167969 36.824219 38.171875 36.550781 C 38.234375 36.746094 38.285156 36.945312 38.308594 37.152344 C 38.660156 37.269531 38.960938 37.394531 39.183594 37.503906 C 38.960938 37.609375 38.660156 37.738281 38.304688 37.855469 C 38.28125 38.0625 38.230469 38.261719 38.164062 38.457031 C 39.167969 38.183594 39.847656 37.753906 39.890625 37.730469 C 40.042969 37.628906 40.042969 37.375 39.890625 37.277344 Z M 35.296875 38.003906 L 35.296875 38.550781 C 35.601562 38.617188 35.925781 38.664062 36.269531 38.679688 L 36.269531 38.140625 C 35.925781 38.121094 35.597656 38.074219 35.296875 38.003906 Z M 36.929688 36.152344 C 36.933594 36.148438 36.933594 36.140625 36.933594 36.136719 C 36.933594 36.140625 36.933594 36.148438 36.929688 36.152344 Z M 36.972656 35.929688 C 36.957031 36 36.945312 36.066406 36.933594 36.136719 C 36.945312 36.066406 36.957031 36 36.972656 35.929688 Z M 37.449219 40.578125 C 37.398438 40.460938 37.351562 40.339844 37.304688 40.21875 C 37.351562 40.339844 37.398438 40.460938 37.449219 40.578125 Z M 37.304688 34.769531 C 37.277344 34.847656 37.25 34.929688 37.222656 35.011719 C 37.25 34.929688 37.277344 34.847656 37.304688 34.769531 Z M 37.152344 35.226562 C 37.175781 35.152344 37.199219 35.082031 37.222656 35.011719 C 37.210938 35.046875 37.195312 35.085938 37.183594 35.121094 C 37.171875 35.15625 37.164062 35.191406 37.152344 35.226562 Z M 36.992188 35.835938 C 37.023438 35.691406 37.058594 35.550781 37.097656 35.410156 C 37.058594 35.550781 37.023438 35.691406 36.992188 35.835938 Z M 37.304688 40.21875 C 37.289062 40.167969 37.273438 40.121094 37.253906 40.070312 C 37.273438 40.121094 37.289062 40.167969 37.304688 40.21875 Z M 40.074219 39.183594 C 40.695312 38.582031 41.277344 38.015625 41.792969 37.726562 C 41.878906 37.679688 41.929688 37.589844 41.929688 37.492188 C 41.929688 37.394531 41.875 37.304688 41.789062 37.257812 C 41.273438 36.976562 40.683594 36.398438 40.058594 35.792969 C 39.273438 35.027344 38.464844 34.242188 37.675781 33.925781 C 37.542969 34.183594 37.429688 34.449219 37.324219 34.722656 C 37.363281 34.617188 37.40625 34.511719 37.449219 34.410156 C 38.140625 34.675781 38.925781 35.4375 39.683594 36.175781 C 40.199219 36.679688 40.695312 37.160156 41.167969 37.496094 C 40.699219 37.832031 40.214844 38.304688 39.703125 38.800781 C 38.9375 39.542969 38.148438 40.3125 37.449219 40.578125 C 37.519531 40.742188 37.597656 40.902344 37.675781 41.0625 C 38.46875 40.742188 39.285156 39.953125 40.074219 39.183594 Z M 37.097656 35.410156 C 37.117188 35.347656 37.132812 35.285156 37.152344 35.226562 C 37.132812 35.285156 37.117188 35.347656 37.097656 35.410156 Z M 37.128906 39.679688 C 37.136719 39.710938 37.148438 39.742188 37.15625 39.777344 C 37.148438 39.742188 37.136719 39.710938 37.128906 39.679688 Z M 37.324219 34.722656 C 37.320312 34.738281 37.3125 34.753906 37.304688 34.769531 C 37.3125 34.753906 37.320312 34.738281 37.324219 34.722656 Z M 37.183594 39.867188 C 37.207031 39.933594 37.230469 40.003906 37.253906 40.070312 C 37.222656 39.972656 37.1875 39.875 37.15625 39.777344 C 37.167969 39.804688 37.175781 39.835938 37.183594 39.867188 Z M 37.019531 39.261719 C 37.050781 39.402344 37.089844 39.539062 37.128906 39.679688 C 37.089844 39.539062 37.050781 39.402344 37.019531 39.261719 Z M 39.71875 47.804688 C 39.035156 48.488281 38.015625 48.546875 37.972656 48.550781 C 37.898438 48.554688 37.824219 48.527344 37.769531 48.472656 C 37.71875 48.421875 37.691406 48.355469 37.691406 48.285156 C 37.691406 48.28125 37.691406 48.273438 37.691406 48.269531 C 37.695312 48.226562 37.753906 47.207031 38.4375 46.527344 C 39.121094 45.84375 40.136719 45.78125 40.179688 45.78125 C 40.257812 45.777344 40.332031 45.804688 40.382812 45.859375 C 40.4375 45.914062 40.464844 45.984375 40.460938 46.0625 C 40.460938 46.105469 40.398438 47.125 39.71875 47.804688 Z M 38.277344 47.964844 C 38.578125 47.898438 39.015625 47.75 39.339844 47.425781 C 39.660156 47.105469 39.808594 46.664062 39.875 46.367188 C 39.578125 46.433594 39.140625 46.582031 38.816406 46.90625 C 38.492188 47.226562 38.34375 47.664062 38.277344 47.964844 Z M 40.441406 29.148438 C 40.390625 29.203125 40.316406 29.230469 40.238281 29.226562 C 40.195312 29.222656 39.179688 29.164062 38.496094 28.480469 C 37.8125 27.796875 37.753906 26.78125 37.75 26.738281 C 37.75 26.730469 37.75 26.726562 37.75 26.722656 C 37.75 26.652344 37.777344 26.582031 37.828125 26.535156 C 37.882812 26.480469 37.957031 26.453125 38.03125 26.457031 C 38.074219 26.457031 39.09375 26.519531 39.773438 27.199219 C 40.457031 27.882812 40.519531 28.902344 40.519531 28.945312 C 40.523438 29.023438 40.496094 29.09375 40.441406 29.148438 Z M 39.933594 28.640625 C 39.867188 28.339844 39.71875 27.902344 39.398438 27.578125 C 39.074219 27.257812 38.636719 27.109375 38.335938 27.042969 C 38.402344 27.339844 38.550781 27.777344 38.875 28.101562 C 39.195312 28.425781 39.636719 28.574219 39.933594 28.640625 Z M 36.535156 74.820312 C 35.839844 74.820312 35.269531 74.253906 35.269531 73.554688 C 35.269531 72.855469 35.839844 72.289062 36.535156 72.289062 C 37.234375 72.289062 37.804688 72.855469 37.804688 73.554688 C 37.804688 74.253906 37.234375 74.820312 36.535156 74.820312 Z M 36.535156 74.285156 C 36.941406 74.285156 37.269531 73.957031 37.269531 73.554688 C 37.269531 73.152344 36.941406 72.824219 36.535156 72.824219 C 36.132812 72.824219 35.804688 73.152344 35.804688 73.554688 C 35.804688 73.957031 36.132812 74.285156 36.535156 74.285156 Z M 36.535156 2.699219 C 35.839844 2.699219 35.269531 2.132812 35.269531 1.433594 C 35.269531 0.734375 35.839844 0.167969 36.535156 0.167969 C 37.234375 0.167969 37.804688 0.734375 37.804688 1.433594 C 37.804688 2.132812 37.234375 2.699219 36.535156 2.699219 Z M 36.535156 2.164062 C 36.941406 2.164062 37.269531 1.835938 37.269531 1.433594 C 37.269531 1.03125 36.941406 0.703125 36.535156 0.703125 C 36.132812 0.703125 35.804688 1.03125 35.804688 1.433594 C 35.804688 1.835938 36.132812 2.164062 36.535156 2.164062 Z M 36.535156 2.164062 " fill-opacity="1" fill-rule="nonzero"/></g></svg>