<svg xmlns="http://www.w3.org/2000/svg" xmlns:xlink="http://www.w3.org/1999/xlink" width="100" zoomAndPan="magnify" viewBox="0 0 75 74.999997" height="100" preserveAspectRatio="xMidYMid meet" version="1.0"><defs><clipPath id="a2cbbc0f4c"><path d="M 0 0 L 74.71875 0 L 74.71875 75 L 0 75 Z M 0 0 " clip-rule="nonzero"/></clipPath><clipPath id="8f07cafe3d"><rect x="0" width="75" y="0" height="75"/></clipPath></defs><g transform="matrix(1, 0, 0, 1, 0, -0.000000000000001893)"><g clip-path="url(#8f07cafe3d)"><g clip-path="url(#a2cbbc0f4c)"><path fill="#ffde59" d="M 26.949219 55.089844 C 27.117188 55.148438 31.121094 56.59375 34.523438 59.996094 C 35.1875 60.660156 40.953125 66.523438 39.292969 68.1875 C 39.082031 68.398438 38.808594 68.488281 38.488281 68.488281 C 36.242188 68.488281 31.679688 64 31.101562 63.417969 C 27.699219 60.015625 26.25 56.015625 26.191406 55.847656 C 26.113281 55.632812 26.167969 55.390625 26.332031 55.226562 C 26.492188 55.066406 26.734375 55.011719 26.949219 55.089844 Z M 31.941406 62.578125 C 35.171875 65.8125 37.722656 67.296875 38.417969 67.316406 C 38.398438 66.621094 36.914062 64.070312 33.683594 60.835938 C 31.640625 58.792969 29.320312 57.480469 27.894531 56.792969 C 28.582031 58.214844 29.894531 60.535156 31.941406 62.578125 Z M 54.730469 25.59375 C 54.898438 25.65625 58.902344 27.101562 62.304688 30.503906 C 62.964844 31.167969 68.734375 37.03125 67.070312 38.695312 C 66.863281 38.902344 66.589844 38.996094 66.269531 38.996094 C 64.023438 38.996094 59.460938 34.507812 58.878906 33.925781 C 55.476562 30.523438 54.03125 26.523438 53.972656 26.351562 C 53.894531 26.136719 53.949219 25.898438 54.113281 25.734375 C 54.273438 25.574219 54.515625 25.519531 54.730469 25.59375 Z M 59.71875 33.085938 C 62.953125 36.320312 65.503906 37.800781 66.199219 37.824219 C 66.179688 37.128906 64.695312 34.578125 61.464844 31.34375 C 59.417969 29.300781 57.097656 27.988281 55.675781 27.300781 C 56.363281 28.722656 57.675781 31.042969 59.71875 33.085938 Z M 0.316406 40.839844 C 0.613281 39.859375 1.277344 39.054688 2.179688 38.570312 C 3.273438 37.984375 4.527344 37.863281 5.714844 38.222656 C 6.902344 38.582031 7.878906 39.382812 8.464844 40.476562 C 9.617188 42.632812 10.085938 44.574219 9.945312 46.585938 C 9.804688 48.527344 9.128906 50.59375 7.929688 52.722656 C 7.664062 53.191406 7.382812 53.65625 7.097656 54.125 C 6.007812 55.917969 4.980469 57.609375 4.945312 59.523438 C 4.925781 60.46875 5.160156 61.507812 5.683594 62.792969 C 6.113281 63.839844 6.816406 64.746094 7.566406 65.703125 C 8.167969 66.472656 8.792969 67.273438 9.269531 68.164062 C 9.855469 69.257812 9.980469 70.515625 9.617188 71.703125 C 9.257812 72.890625 8.457031 73.867188 7.363281 74.449219 C 6.789062 74.757812 6.171875 74.902344 5.5625 74.902344 C 4.191406 74.902344 2.863281 74.167969 2.175781 72.878906 C 1.347656 71.328125 1.933594 69.394531 3.484375 68.566406 C 4.109375 68.230469 4.832031 68.160156 5.515625 68.363281 C 6.195312 68.570312 6.757812 69.03125 7.09375 69.660156 C 7.375 70.191406 7.4375 70.800781 7.261719 71.375 C 7.085938 71.953125 6.699219 72.425781 6.167969 72.710938 C 5.714844 72.953125 5.195312 73 4.703125 72.855469 C 4.214844 72.703125 3.808594 72.375 3.566406 71.921875 C 3.359375 71.53125 3.316406 71.082031 3.445312 70.660156 C 3.570312 70.234375 3.859375 69.886719 4.246094 69.679688 C 4.589844 69.5 4.980469 69.460938 5.347656 69.570312 C 5.355469 69.574219 5.363281 69.574219 5.371094 69.578125 C 5.304688 69.546875 5.238281 69.523438 5.167969 69.503906 C 4.792969 69.386719 4.390625 69.425781 4.042969 69.613281 C 3.070312 70.132812 2.703125 71.34375 3.222656 72.316406 C 3.910156 73.605469 5.515625 74.089844 6.804688 73.402344 C 7.617188 72.96875 8.214844 72.242188 8.480469 71.359375 C 8.75 70.476562 8.65625 69.539062 8.222656 68.726562 C 7.792969 67.921875 7.226562 67.199219 6.628906 66.433594 C 5.863281 65.457031 5.074219 64.441406 4.585938 63.242188 C 4 61.800781 3.734375 60.613281 3.753906 59.5 C 3.796875 57.269531 4.957031 55.355469 6.082031 53.507812 C 6.359375 53.050781 6.636719 52.597656 6.894531 52.140625 C 8.003906 50.164062 8.632812 48.269531 8.757812 46.5 C 8.886719 44.722656 8.457031 42.984375 7.417969 41.035156 C 6.980469 40.222656 6.253906 39.625 5.371094 39.359375 C 4.488281 39.089844 3.554688 39.183594 2.738281 39.617188 C 1.453125 40.304688 0.964844 41.914062 1.652344 43.199219 C 2.171875 44.171875 3.386719 44.539062 4.355469 44.019531 C 4.785156 43.789062 5.054688 43.382812 5.121094 42.9375 C 5.019531 43.296875 4.773438 43.621094 4.414062 43.8125 C 3.609375 44.242188 2.605469 43.9375 2.175781 43.132812 C 1.675781 42.199219 2.027344 41.03125 2.964844 40.53125 C 4.058594 39.945312 5.425781 40.363281 6.011719 41.457031 C 6.707031 42.753906 6.214844 44.375 4.917969 45.066406 C 3.367188 45.898438 1.433594 45.308594 0.605469 43.761719 C 0.121094 42.855469 0.0195312 41.820312 0.316406 40.839844 Z M 5.152344 70.832031 C 5.109375 70.75 5.039062 70.71875 5.003906 70.707031 C 4.984375 70.703125 4.957031 70.699219 4.929688 70.699219 C 4.914062 70.699219 4.902344 70.699219 4.890625 70.699219 C 4.996094 70.742188 5.085938 70.816406 5.152344 70.914062 C 5.167969 70.890625 5.167969 70.859375 5.152344 70.832031 Z M 3.960938 42.417969 C 3.949219 42.398438 3.921875 42.382812 3.894531 42.378906 C 3.9375 42.484375 3.945312 42.601562 3.925781 42.710938 C 3.996094 42.632812 4.011719 42.515625 3.960938 42.417969 Z M 72.054688 8.421875 C 69.921875 9.621094 67.988281 10.136719 65.980469 10.039062 C 64.03125 9.945312 61.953125 9.3125 59.796875 8.160156 C 59.324219 7.910156 58.851562 7.636719 58.378906 7.363281 C 56.570312 6.316406 54.859375 5.328125 52.953125 5.328125 C 52.949219 5.328125 52.941406 5.328125 52.933594 5.328125 C 51.988281 5.332031 50.953125 5.59375 49.679688 6.144531 C 48.640625 6.59375 47.753906 7.320312 46.8125 8.089844 C 46.054688 8.710938 45.269531 9.351562 44.390625 9.851562 C 43.683594 10.246094 42.902344 10.449219 42.117188 10.449219 C 41.695312 10.449219 41.277344 10.394531 40.859375 10.277344 C 39.667969 9.945312 38.671875 9.167969 38.0625 8.085938 C 37.558594 7.195312 37.433594 6.160156 37.710938 5.171875 C 37.984375 4.1875 38.628906 3.367188 39.519531 2.863281 C 41.050781 2 42.996094 2.542969 43.859375 4.074219 C 44.582031 5.355469 44.128906 6.984375 42.847656 7.707031 C 42.324219 8.003906 41.714844 8.078125 41.132812 7.914062 C 40.554688 7.753906 40.074219 7.375 39.777344 6.851562 C 39.523438 6.402344 39.460938 5.886719 39.601562 5.390625 C 39.738281 4.898438 40.058594 4.484375 40.507812 4.234375 C 40.890625 4.015625 41.339844 3.964844 41.765625 4.082031 C 42.191406 4.199219 42.546875 4.476562 42.761719 4.863281 C 42.960938 5.21875 42.996094 5.621094 42.886719 5.980469 C 43.070312 5.570312 43.0625 5.078125 42.824219 4.65625 C 42.285156 3.695312 41.0625 3.355469 40.101562 3.898438 C 39.488281 4.246094 39.042969 4.8125 38.855469 5.492188 C 38.664062 6.171875 38.75 6.886719 39.097656 7.5 C 39.550781 8.304688 40.292969 8.886719 41.179688 9.132812 C 42.070312 9.378906 43.003906 9.269531 43.804688 8.816406 C 44.597656 8.367188 45.308594 7.785156 46.058594 7.171875 C 47.023438 6.382812 48.015625 5.570312 49.207031 5.054688 C 50.632812 4.4375 51.816406 4.144531 52.929688 4.140625 C 52.9375 4.140625 52.945312 4.140625 52.953125 4.140625 C 55.175781 4.140625 57.105469 5.257812 58.972656 6.335938 C 59.4375 6.601562 59.894531 6.867188 60.359375 7.113281 C 62.355469 8.179688 64.265625 8.765625 66.039062 8.851562 C 67.820312 8.9375 69.542969 8.472656 71.46875 7.386719 C 72.273438 6.933594 72.851562 6.195312 73.101562 5.304688 C 73.347656 4.414062 73.234375 3.484375 72.78125 2.679688 C 72.433594 2.0625 71.871094 1.621094 71.1875 1.429688 C 70.507812 1.238281 69.792969 1.328125 69.179688 1.675781 C 68.21875 2.214844 67.878906 3.4375 68.417969 4.394531 C 68.65625 4.816406 69.070312 5.078125 69.519531 5.136719 C 69.15625 5.039062 68.828125 4.804688 68.628906 4.449219 C 68.179688 3.652344 68.460938 2.640625 69.257812 2.195312 C 69.703125 1.941406 70.222656 1.878906 70.714844 2.015625 C 71.210938 2.15625 71.621094 2.476562 71.875 2.921875 C 72.167969 3.449219 72.242188 4.054688 72.082031 4.636719 C 71.921875 5.214844 71.542969 5.695312 71.019531 5.992188 C 70.398438 6.34375 69.679688 6.429688 68.992188 6.238281 C 68.304688 6.046875 67.734375 5.601562 67.382812 4.980469 C 66.519531 3.449219 67.0625 1.5 68.59375 0.640625 C 69.488281 0.136719 70.523438 0.0117188 71.507812 0.285156 C 72.492188 0.558594 73.316406 1.203125 73.816406 2.09375 C 74.425781 3.175781 74.578125 4.429688 74.246094 5.625 C 73.914062 6.820312 73.132812 7.8125 72.054688 8.421875 Z M 41.550781 5.796875 C 41.574219 5.808594 41.605469 5.808594 41.628906 5.792969 C 41.726562 5.738281 41.773438 5.632812 41.757812 5.527344 C 41.714844 5.632812 41.644531 5.726562 41.550781 5.796875 Z M 70.011719 3.960938 C 70.03125 3.949219 70.046875 3.921875 70.050781 3.894531 C 69.941406 3.941406 69.828125 3.953125 69.71875 3.933594 C 69.796875 4 69.914062 4.015625 70.011719 3.960938 Z M 12.082031 37.601562 C 12.101562 37.558594 12.128906 37.519531 12.15625 37.480469 C 12.175781 37.457031 12.1875 37.429688 12.207031 37.410156 C 12.242188 37.371094 12.289062 37.347656 12.332031 37.320312 C 12.355469 37.304688 12.371094 37.285156 12.398438 37.277344 C 12.421875 37.265625 12.453125 37.265625 12.480469 37.257812 C 12.527344 37.246094 12.574219 37.230469 12.621094 37.230469 C 12.625 37.230469 12.628906 37.226562 12.632812 37.226562 C 25.960938 37.226562 36.808594 26.140625 36.808594 12.515625 C 36.808594 12.507812 36.8125 12.5 36.8125 12.492188 C 36.816406 12.449219 36.828125 12.410156 36.839844 12.367188 C 36.847656 12.332031 36.851562 12.296875 36.867188 12.265625 C 36.882812 12.234375 36.90625 12.207031 36.925781 12.179688 C 36.949219 12.144531 36.972656 12.109375 37.003906 12.082031 C 37.027344 12.058594 37.058594 12.039062 37.089844 12.023438 C 37.125 12 37.160156 11.976562 37.199219 11.960938 C 37.238281 11.949219 37.277344 11.941406 37.316406 11.9375 C 37.347656 11.933594 37.371094 11.921875 37.402344 11.921875 L 74.097656 11.921875 C 74.425781 11.921875 74.691406 12.1875 74.691406 12.515625 C 74.691406 17.042969 71.007812 20.730469 66.476562 20.730469 L 50.394531 20.730469 C 50.414062 21.144531 50.421875 21.535156 50.421875 21.902344 C 50.421875 38.289062 37.1875 51.632812 20.847656 51.828125 L 20.847656 66.808594 C 20.847656 71.335938 17.160156 75.023438 12.632812 75.023438 C 12.472656 75.023438 12.324219 74.960938 12.210938 74.847656 C 12.101562 74.738281 12.039062 74.585938 12.039062 74.429688 L 12.039062 37.820312 C 12.039062 37.792969 12.050781 37.765625 12.054688 37.738281 C 12.0625 37.691406 12.066406 37.644531 12.082031 37.601562 Z M 49.234375 21.902344 C 49.234375 21.535156 49.226562 21.148438 49.207031 20.730469 L 45.875 20.730469 C 45.148438 20.730469 44.5 21.21875 44.296875 21.921875 C 42.710938 27.421875 39.722656 32.375 35.773438 36.335938 L 41.15625 41.855469 C 46.152344 36.679688 49.234375 29.644531 49.234375 21.902344 Z M 20.847656 50.648438 C 28.386719 50.554688 35.230469 47.539062 40.3125 42.691406 L 34.917969 37.164062 C 31.261719 40.585938 26.859375 43.191406 22.019531 44.65625 C 21.929688 44.679688 21.847656 44.714844 21.765625 44.753906 C 21.207031 45.027344 20.847656 45.589844 20.847656 46.226562 Z M 13.226562 39.199219 L 13.226562 73.808594 C 16.824219 73.507812 19.660156 70.480469 19.660156 66.808594 L 19.660156 46.226562 C 19.660156 45.941406 19.707031 45.664062 19.785156 45.398438 C 19.90625 45 20.117188 44.640625 20.390625 44.335938 C 20.628906 44.074219 20.914062 43.847656 21.242188 43.6875 C 21.378906 43.621094 21.523438 43.5625 21.675781 43.515625 C 26.519531 42.054688 30.914062 39.402344 34.519531 35.910156 C 34.519531 35.90625 34.519531 35.90625 34.519531 35.90625 C 34.523438 35.90625 34.523438 35.90625 34.523438 35.90625 C 38.539062 32.015625 41.570312 27.085938 43.15625 21.59375 C 43.25 21.265625 43.402344 20.96875 43.597656 20.703125 C 43.835938 20.378906 44.140625 20.113281 44.488281 19.914062 C 44.902344 19.679688 45.378906 19.542969 45.875 19.542969 L 66.476562 19.542969 C 70.152344 19.542969 73.175781 16.707031 73.480469 13.109375 L 37.992188 13.109375 C 37.984375 13.429688 37.964844 13.75 37.945312 14.066406 C 37.183594 27.140625 26.886719 37.628906 14.074219 38.367188 C 13.792969 38.382812 13.511719 38.402344 13.226562 38.410156 Z M 26 27.785156 C 23.261719 30.21875 20.089844 31.648438 17.074219 31.804688 C 16.878906 31.816406 16.6875 31.820312 16.496094 31.820312 C 13.429688 31.820312 10.664062 30.527344 8.472656 28.058594 C 3.734375 22.734375 2.335938 2.675781 2.277344 1.828125 C 2.265625 1.644531 2.339844 1.464844 2.476562 1.34375 C 2.613281 1.222656 2.796875 1.167969 2.980469 1.203125 C 3.816406 1.359375 23.574219 5.082031 28.3125 10.40625 C 32.863281 15.523438 31.933594 22.503906 26 27.785156 Z M 27.425781 11.199219 C 23.457031 6.738281 7.242188 3.265625 3.523438 2.519531 C 3.832031 6.300781 5.390625 22.808594 9.359375 27.269531 C 11.441406 29.613281 14.085938 30.769531 17.011719 30.617188 C 19.761719 30.476562 22.671875 29.152344 25.207031 26.894531 C 29.707031 22.894531 32.132812 16.488281 27.425781 11.199219 Z M 22.917969 24.914062 C 22.828125 24.914062 22.742188 24.894531 22.65625 24.855469 L 14.992188 21.152344 C 13.375 20.371094 12.0625 19.050781 11.265625 17.453125 C 11.113281 17.144531 10.972656 16.832031 10.859375 16.507812 L 8.074219 8.464844 C 7.996094 8.234375 8.0625 7.984375 8.242188 7.824219 C 8.421875 7.664062 8.679688 7.628906 8.894531 7.734375 L 16.5625 11.4375 C 16.917969 11.609375 17.257812 11.816406 17.582031 12.039062 C 19.011719 13.015625 20.121094 14.433594 20.691406 16.078125 L 22.894531 22.441406 L 23.476562 24.125 C 23.496094 24.179688 23.507812 24.238281 23.511719 24.296875 C 23.515625 24.472656 23.445312 24.644531 23.3125 24.761719 C 23.199219 24.863281 23.058594 24.914062 22.917969 24.914062 Z M 19.972656 17.628906 L 19.582031 16.507812 L 19.570312 16.46875 C 19.496094 16.257812 19.410156 16.050781 19.320312 15.847656 C 19.289062 15.785156 19.253906 15.726562 19.226562 15.664062 C 19.15625 15.527344 19.089844 15.390625 19.011719 15.257812 C 18.96875 15.183594 18.917969 15.113281 18.871094 15.039062 C 18.796875 14.925781 18.726562 14.808594 18.648438 14.699219 C 18.59375 14.625 18.53125 14.554688 18.476562 14.480469 C 18.394531 14.378906 18.320312 14.277344 18.234375 14.183594 C 18.171875 14.109375 18.101562 14.039062 18.035156 13.96875 C 17.949219 13.878906 17.863281 13.789062 17.773438 13.703125 C 17.699219 13.636719 17.625 13.570312 17.546875 13.503906 C 17.457031 13.425781 17.367188 13.347656 17.269531 13.273438 C 17.1875 13.210938 17.105469 13.152344 17.019531 13.089844 C 16.921875 13.023438 16.828125 12.953125 16.726562 12.890625 C 16.636719 12.832031 16.546875 12.78125 16.453125 12.730469 C 16.382812 12.691406 16.3125 12.652344 16.242188 12.613281 C 16.175781 12.578125 16.113281 12.539062 16.046875 12.507812 L 14.832031 11.921875 L 9.667969 9.425781 L 11.542969 14.847656 L 11.984375 16.117188 C 12.007812 16.191406 12.042969 16.257812 12.066406 16.328125 C 12.097656 16.40625 12.128906 16.484375 12.164062 16.5625 C 12.203125 16.65625 12.242188 16.746094 12.285156 16.835938 C 12.335938 16.949219 12.398438 17.054688 12.457031 17.164062 C 12.503906 17.25 12.550781 17.335938 12.601562 17.421875 C 12.664062 17.527344 12.734375 17.628906 12.804688 17.734375 C 12.859375 17.8125 12.914062 17.894531 12.972656 17.976562 C 13.046875 18.074219 13.128906 18.171875 13.207031 18.265625 C 13.269531 18.339844 13.328125 18.417969 13.390625 18.488281 C 13.480469 18.582031 13.570312 18.671875 13.664062 18.765625 C 13.730469 18.828125 13.792969 18.898438 13.859375 18.960938 C 13.960938 19.050781 14.066406 19.132812 14.167969 19.21875 C 14.238281 19.273438 14.300781 19.332031 14.371094 19.386719 C 14.488281 19.472656 14.609375 19.550781 14.734375 19.632812 C 14.796875 19.675781 14.859375 19.722656 14.921875 19.761719 C 15.085938 19.859375 15.257812 19.953125 15.429688 20.039062 C 15.457031 20.050781 15.480469 20.066406 15.507812 20.082031 L 21.886719 23.160156 Z M 19.972656 17.628906 " fill-opacity="1" fill-rule="nonzero"/></g><path fill="#ffcc00" d="M 28.566406 53.167969 C 28.808594 53.136719 34.550781 52.386719 36.242188 52.582031 C 37.121094 52.683594 37.9375 52.949219 38.542969 53.328125 C 39.273438 53.792969 39.640625 54.386719 39.566406 55.007812 C 39.453125 56.011719 38.207031 56.664062 36.546875 56.664062 C 36.296875 56.664062 36.042969 56.652344 35.777344 56.621094 C 34.085938 56.425781 28.664062 54.398438 28.433594 54.3125 C 28.179688 54.21875 28.019531 53.960938 28.050781 53.6875 C 28.082031 53.417969 28.296875 53.203125 28.566406 53.167969 Z M 35.914062 55.441406 C 37.457031 55.617188 38.359375 55.117188 38.386719 54.875 C 38.398438 54.765625 38.253906 54.554688 37.90625 54.332031 C 37.457031 54.050781 36.800781 53.84375 36.105469 53.761719 C 35.949219 53.746094 35.746094 53.734375 35.507812 53.734375 C 34.464844 53.734375 32.738281 53.890625 31.214844 54.050781 C 32.992188 54.667969 35.078125 55.34375 35.914062 55.441406 Z M 25.019531 56.722656 C 25.285156 56.691406 25.546875 56.847656 25.644531 57.101562 C 25.730469 57.332031 27.757812 62.753906 27.953125 64.445312 C 28.054688 65.328125 27.980469 66.183594 27.746094 66.855469 C 27.460938 67.675781 26.960938 68.167969 26.339844 68.238281 C 26.289062 68.242188 26.242188 68.246094 26.195312 68.246094 C 25.101562 68.246094 24.136719 66.851562 23.914062 64.910156 C 23.71875 63.21875 24.464844 57.476562 24.5 57.234375 C 24.535156 56.964844 24.75 56.753906 25.019531 56.722656 Z M 25.09375 64.773438 C 25.269531 66.316406 25.949219 67.074219 26.207031 67.058594 C 26.292969 67.046875 26.480469 66.878906 26.621094 66.464844 C 26.796875 65.964844 26.851562 65.277344 26.769531 64.582031 C 26.675781 63.746094 26 61.660156 25.382812 59.882812 C 25.183594 61.753906 24.996094 63.941406 25.09375 64.773438 Z M 56.347656 23.675781 C 56.589844 23.640625 62.328125 22.894531 64.019531 23.089844 C 64.902344 23.1875 65.71875 23.453125 66.320312 23.835938 C 67.054688 24.296875 67.417969 24.894531 67.347656 25.515625 C 67.234375 26.519531 65.984375 27.171875 64.328125 27.171875 C 64.078125 27.171875 63.820312 27.15625 63.558594 27.128906 C 61.867188 26.933594 56.445312 24.90625 56.214844 24.820312 C 55.960938 24.722656 55.800781 24.464844 55.832031 24.195312 C 55.863281 23.925781 56.074219 23.710938 56.347656 23.675781 Z M 63.695312 25.945312 C 65.238281 26.125 66.140625 25.625 66.167969 25.378906 C 66.179688 25.273438 66.035156 25.058594 65.6875 24.839844 C 65.238281 24.558594 64.582031 24.347656 63.886719 24.269531 C 63.730469 24.25 63.527344 24.242188 63.285156 24.242188 C 62.246094 24.242188 60.515625 24.394531 58.996094 24.558594 C 60.773438 25.175781 62.859375 25.851562 63.695312 25.945312 Z M 52.800781 27.226562 C 53.066406 27.195312 53.328125 27.355469 53.425781 27.609375 C 53.511719 27.839844 55.539062 33.261719 55.734375 34.953125 C 55.832031 35.832031 55.761719 36.6875 55.527344 37.363281 C 55.242188 38.183594 54.742188 38.671875 54.121094 38.742188 C 54.070312 38.75 54.023438 38.753906 53.972656 38.753906 C 52.882812 38.753906 51.914062 37.359375 51.691406 35.417969 C 51.5 33.722656 52.246094 27.984375 52.277344 27.742188 C 52.3125 27.46875 52.527344 27.257812 52.800781 27.226562 Z M 52.875 35.28125 C 53.050781 36.824219 53.71875 37.59375 53.984375 37.5625 C 54.074219 37.554688 54.257812 37.386719 54.402344 36.972656 C 54.578125 36.472656 54.632812 35.785156 54.550781 35.089844 C 54.457031 34.253906 53.78125 32.167969 53.164062 30.390625 C 52.964844 32.261719 52.777344 34.445312 52.875 35.28125 Z M 37.003906 12.082031 C 37.027344 12.058594 37.058594 12.042969 37.089844 12.023438 C 37.066406 12.035156 37.039062 12.042969 37.015625 12.0625 C 37.011719 12.066406 37.007812 12.074219 37.003906 12.082031 Z M 37.945312 14.066406 L 43.597656 20.703125 C 43.835938 20.378906 44.140625 20.113281 44.488281 19.914062 L 38.6875 13.109375 L 37.988281 13.109375 C 37.984375 13.429688 37.964844 13.75 37.945312 14.066406 Z M 12.199219 37.414062 C 12.179688 37.433594 12.171875 37.460938 12.15625 37.480469 C 12.175781 37.457031 12.1875 37.429688 12.207031 37.410156 C 12.203125 37.410156 12.203125 37.410156 12.199219 37.414062 Z M 14.074219 38.367188 C 13.792969 38.382812 13.511719 38.402344 13.226562 38.410156 L 13.226562 39.199219 L 19.785156 45.398438 C 19.90625 45 20.117188 44.640625 20.390625 44.335938 Z M 20.691406 16.078125 L 22.894531 22.441406 L 20.691406 16.078125 C 20.125 14.433594 19.011719 13.015625 17.582031 12.039062 C 19.011719 13.015625 20.121094 14.433594 20.691406 16.078125 Z M 11.542969 14.847656 L 11.984375 16.117188 C 12.007812 16.191406 12.042969 16.257812 12.066406 16.328125 C 12.480469 15.445312 13.050781 14.675781 13.769531 14.035156 C 14.488281 13.398438 15.320312 12.917969 16.242188 12.613281 C 16.175781 12.578125 16.113281 12.539062 16.046875 12.507812 L 14.832031 11.921875 C 14.164062 12.246094 13.539062 12.652344 12.980469 13.148438 C 12.417969 13.648438 11.945312 14.21875 11.542969 14.847656 Z M 15.507812 20.082031 L 21.886719 23.164062 L 16.613281 20.613281 C 16.929688 19.90625 17.390625 19.269531 17.96875 18.757812 C 18.546875 18.242188 19.230469 17.855469 19.972656 17.628906 L 19.582031 16.507812 C 18.695312 16.789062 17.871094 17.25 17.175781 17.867188 C 16.480469 18.488281 15.933594 19.253906 15.550781 20.101562 L 15.507812 20.082031 C 15.480469 20.066406 15.457031 20.050781 15.429688 20.039062 C 15.457031 20.050781 15.480469 20.070312 15.507812 20.082031 Z M 23.511719 24.296875 C 23.515625 24.429688 23.476562 24.558594 23.398438 24.664062 C 23.476562 24.558594 23.515625 24.429688 23.511719 24.296875 Z M 23.390625 15.195312 C 24.414062 14.285156 25.984375 14.378906 26.894531 15.398438 C 27.804688 16.421875 27.710938 17.992188 26.691406 18.902344 C 26.230469 19.308594 25.652344 19.53125 25.042969 19.53125 C 24.996094 19.53125 24.945312 19.527344 24.894531 19.527344 C 24.234375 19.488281 23.628906 19.191406 23.1875 18.699219 C 22.277344 17.675781 22.371094 16.105469 23.390625 15.195312 Z M 24.074219 17.90625 C 24.304688 18.164062 24.621094 18.320312 24.964844 18.339844 C 25.308594 18.359375 25.640625 18.246094 25.898438 18.015625 C 26.433594 17.539062 26.480469 16.722656 26.007812 16.1875 C 25.53125 15.65625 24.714844 15.609375 24.179688 16.082031 C 23.648438 16.554688 23.601562 17.375 24.074219 17.90625 Z M 15.644531 23.058594 C 16.308594 23.097656 16.914062 23.390625 17.355469 23.886719 C 18.261719 24.910156 18.171875 26.480469 17.148438 27.390625 C 16.675781 27.808594 16.089844 28.015625 15.5 28.015625 C 14.816406 28.015625 14.136719 27.734375 13.648438 27.183594 C 13.207031 26.691406 12.984375 26.054688 13.023438 25.390625 C 13.0625 24.730469 13.355469 24.121094 13.851562 23.683594 C 14.347656 23.242188 14.988281 23.019531 15.644531 23.058594 Z M 14.535156 26.394531 C 15.007812 26.925781 15.828125 26.976562 16.359375 26.503906 C 16.890625 26.027344 16.941406 25.210938 16.464844 24.675781 C 16.238281 24.417969 15.921875 24.265625 15.574219 24.246094 C 15.550781 24.242188 15.523438 24.242188 15.5 24.242188 C 15.183594 24.242188 14.878906 24.359375 14.640625 24.570312 C 14.382812 24.800781 14.230469 25.117188 14.210938 25.460938 C 14.191406 25.804688 14.304688 26.136719 14.535156 26.394531 Z M 14.535156 26.394531 " fill-opacity="1" fill-rule="nonzero"/></g></g></svg>