<svg xmlns="http://www.w3.org/2000/svg" xmlns:xlink="http://www.w3.org/1999/xlink" width="100" zoomAndPan="magnify" viewBox="0 0 75 74.999997" height="100" preserveAspectRatio="xMidYMid meet" version="1.0"><path fill="#ffde59" d="M 47.769531 55.089844 C 47.601562 55.148438 43.597656 56.59375 40.195312 59.996094 C 39.53125 60.660156 33.765625 66.523438 35.425781 68.1875 C 35.636719 68.398438 35.910156 68.488281 36.230469 68.488281 C 38.476562 68.488281 43.039062 64 43.617188 63.417969 C 47.019531 60.015625 48.46875 56.015625 48.527344 55.847656 C 48.605469 55.632812 48.550781 55.390625 48.386719 55.226562 C 48.226562 55.066406 47.984375 55.011719 47.769531 55.089844 Z M 42.777344 62.578125 C 39.542969 65.8125 36.996094 67.296875 36.300781 67.316406 C 36.320312 66.621094 37.804688 64.070312 41.035156 60.835938 C 43.078125 58.792969 45.398438 57.480469 46.824219 56.792969 C 46.136719 58.214844 44.824219 60.535156 42.777344 62.578125 Z M 19.988281 25.59375 C 19.820312 25.65625 15.816406 27.101562 12.414062 30.503906 C 11.753906 31.167969 5.984375 37.03125 7.648438 38.695312 C 7.855469 38.902344 8.128906 38.996094 8.449219 38.996094 C 10.695312 38.996094 15.257812 34.507812 15.839844 33.925781 C 19.242188 30.523438 20.6875 26.523438 20.746094 26.351562 C 20.824219 26.136719 20.769531 25.898438 20.605469 25.734375 C 20.445312 25.574219 20.203125 25.519531 19.988281 25.59375 Z M 15 33.085938 C 11.765625 36.320312 9.214844 37.800781 8.519531 37.824219 C 8.539062 37.128906 10.023438 34.578125 13.253906 31.34375 C 15.300781 29.300781 17.621094 27.988281 19.042969 27.300781 C 18.355469 28.722656 17.042969 31.042969 15 33.085938 Z M 74.402344 40.839844 C 74.105469 39.859375 73.441406 39.054688 72.539062 38.570312 C 71.445312 37.984375 70.191406 37.863281 69.003906 38.222656 C 67.816406 38.582031 66.839844 39.382812 66.253906 40.476562 C 65.101562 42.632812 64.632812 44.574219 64.773438 46.585938 C 64.914062 48.527344 65.589844 50.59375 66.789062 52.722656 C 67.054688 53.191406 67.335938 53.65625 67.621094 54.125 C 68.710938 55.917969 69.738281 57.609375 69.773438 59.523438 C 69.792969 60.46875 69.558594 61.507812 69.035156 62.792969 C 68.605469 63.839844 67.902344 64.746094 67.152344 65.703125 C 66.550781 66.472656 65.925781 67.273438 65.449219 68.164062 C 64.863281 69.257812 64.738281 70.515625 65.101562 71.703125 C 65.460938 72.890625 66.261719 73.867188 67.355469 74.449219 C 67.929688 74.757812 68.546875 74.902344 69.15625 74.902344 C 70.527344 74.902344 71.855469 74.167969 72.542969 72.878906 C 73.371094 71.328125 72.785156 69.394531 71.234375 68.566406 C 70.609375 68.230469 69.886719 68.160156 69.203125 68.363281 C 68.523438 68.570312 67.960938 69.03125 67.625 69.660156 C 67.34375 70.191406 67.28125 70.800781 67.457031 71.375 C 67.632812 71.953125 68.019531 72.425781 68.550781 72.710938 C 69.003906 72.953125 69.523438 73 70.015625 72.855469 C 70.503906 72.703125 70.910156 72.375 71.152344 71.921875 C 71.359375 71.53125 71.402344 71.082031 71.273438 70.660156 C 71.148438 70.234375 70.859375 69.886719 70.472656 69.679688 C 70.128906 69.5 69.738281 69.460938 69.371094 69.570312 C 69.363281 69.574219 69.355469 69.574219 69.347656 69.578125 C 69.414062 69.546875 69.480469 69.523438 69.550781 69.503906 C 69.925781 69.386719 70.328125 69.425781 70.675781 69.613281 C 71.648438 70.132812 72.015625 71.34375 71.496094 72.316406 C 70.808594 73.605469 69.203125 74.089844 67.914062 73.402344 C 67.101562 72.96875 66.503906 72.242188 66.238281 71.359375 C 65.96875 70.476562 66.0625 69.539062 66.496094 68.726562 C 66.925781 67.921875 67.492188 67.199219 68.089844 66.433594 C 68.855469 65.457031 69.644531 64.441406 70.132812 63.242188 C 70.71875 61.800781 70.984375 60.613281 70.964844 59.5 C 70.921875 57.269531 69.761719 55.355469 68.636719 53.507812 C 68.359375 53.050781 68.082031 52.597656 67.824219 52.140625 C 66.714844 50.164062 66.085938 48.269531 65.960938 46.5 C 65.832031 44.722656 66.261719 42.984375 67.300781 41.035156 C 67.738281 40.222656 68.464844 39.625 69.347656 39.359375 C 70.230469 39.089844 71.164062 39.183594 71.980469 39.617188 C 73.265625 40.304688 73.753906 41.914062 73.066406 43.199219 C 72.546875 44.171875 71.332031 44.539062 70.363281 44.019531 C 69.933594 43.789062 69.664062 43.382812 69.597656 42.9375 C 69.699219 43.296875 69.945312 43.621094 70.304688 43.8125 C 71.109375 44.242188 72.113281 43.9375 72.542969 43.132812 C 73.042969 42.199219 72.691406 41.03125 71.753906 40.53125 C 70.660156 39.945312 69.292969 40.363281 68.707031 41.457031 C 68.011719 42.753906 68.503906 44.375 69.800781 45.066406 C 71.351562 45.898438 73.285156 45.308594 74.113281 43.761719 C 74.597656 42.855469 74.699219 41.820312 74.402344 40.839844 Z M 69.566406 70.832031 C 69.609375 70.75 69.679688 70.71875 69.714844 70.707031 C 69.734375 70.703125 69.761719 70.699219 69.789062 70.699219 C 69.804688 70.699219 69.816406 70.699219 69.828125 70.699219 C 69.722656 70.742188 69.632812 70.816406 69.566406 70.914062 C 69.550781 70.890625 69.550781 70.859375 69.566406 70.832031 Z M 70.757812 42.417969 C 70.769531 42.398438 70.796875 42.382812 70.824219 42.378906 C 70.78125 42.484375 70.773438 42.601562 70.792969 42.710938 C 70.722656 42.632812 70.707031 42.515625 70.757812 42.417969 Z M 2.664062 8.421875 C 4.796875 9.621094 6.730469 10.136719 8.738281 10.039062 C 10.6875 9.945312 12.765625 9.3125 14.921875 8.160156 C 15.394531 7.910156 15.867188 7.636719 16.339844 7.363281 C 18.148438 6.316406 19.859375 5.328125 21.765625 5.328125 C 21.769531 5.328125 21.777344 5.328125 21.785156 5.328125 C 22.730469 5.332031 23.765625 5.59375 25.039062 6.144531 C 26.078125 6.59375 26.964844 7.320312 27.90625 8.089844 C 28.664062 8.710938 29.449219 9.351562 30.328125 9.851562 C 31.035156 10.246094 31.816406 10.449219 32.601562 10.449219 C 33.023438 10.449219 33.441406 10.394531 33.859375 10.277344 C 35.050781 9.945312 36.046875 9.167969 36.65625 8.085938 C 37.160156 7.195312 37.285156 6.160156 37.007812 5.171875 C 36.734375 4.1875 36.089844 3.367188 35.199219 2.863281 C 33.667969 2 31.722656 2.542969 30.859375 4.074219 C 30.136719 5.355469 30.589844 6.984375 31.871094 7.707031 C 32.394531 8.003906 33.003906 8.078125 33.585938 7.914062 C 34.164062 7.753906 34.644531 7.375 34.941406 6.851562 C 35.195312 6.402344 35.257812 5.886719 35.117188 5.390625 C 34.980469 4.898438 34.660156 4.484375 34.210938 4.234375 C 33.828125 4.015625 33.378906 3.964844 32.953125 4.082031 C 32.527344 4.199219 32.171875 4.476562 31.957031 4.863281 C 31.757812 5.21875 31.722656 5.621094 31.832031 5.980469 C 31.648438 5.570312 31.65625 5.078125 31.894531 4.65625 C 32.433594 3.695312 33.65625 3.355469 34.617188 3.898438 C 35.230469 4.246094 35.675781 4.8125 35.863281 5.492188 C 36.054688 6.171875 35.96875 6.886719 35.621094 7.5 C 35.167969 8.304688 34.425781 8.886719 33.539062 9.132812 C 32.648438 9.378906 31.714844 9.269531 30.914062 8.816406 C 30.121094 8.367188 29.410156 7.785156 28.660156 7.171875 C 27.695312 6.382812 26.703125 5.570312 25.511719 5.054688 C 24.085938 4.4375 22.902344 4.144531 21.789062 4.140625 C 21.78125 4.140625 21.773438 4.140625 21.765625 4.140625 C 19.542969 4.140625 17.613281 5.257812 15.746094 6.335938 C 15.28125 6.601562 14.824219 6.867188 14.359375 7.113281 C 12.363281 8.179688 10.453125 8.765625 8.679688 8.851562 C 6.898438 8.9375 5.175781 8.472656 3.25 7.386719 C 2.445312 6.933594 1.867188 6.195312 1.617188 5.304688 C 1.371094 4.414062 1.484375 3.484375 1.9375 2.679688 C 2.285156 2.0625 2.847656 1.621094 3.53125 1.429688 C 4.210938 1.238281 4.925781 1.328125 5.539062 1.675781 C 6.5 2.214844 6.839844 3.4375 6.300781 4.394531 C 6.0625 4.816406 5.648438 5.078125 5.199219 5.136719 C 5.5625 5.039062 5.890625 4.804688 6.089844 4.449219 C 6.539062 3.652344 6.257812 2.640625 5.460938 2.195312 C 5.015625 1.941406 4.496094 1.878906 4.003906 2.015625 C 3.507812 2.15625 3.097656 2.476562 2.84375 2.921875 C 2.550781 3.449219 2.476562 4.054688 2.636719 4.636719 C 2.796875 5.214844 3.175781 5.695312 3.699219 5.992188 C 4.320312 6.34375 5.039062 6.429688 5.726562 6.238281 C 6.414062 6.046875 6.984375 5.601562 7.335938 4.980469 C 8.199219 3.449219 7.65625 1.5 6.125 0.640625 C 5.230469 0.136719 4.195312 0.0117188 3.210938 0.285156 C 2.226562 0.558594 1.402344 1.203125 0.902344 2.09375 C 0.292969 3.175781 0.140625 4.429688 0.472656 5.625 C 0.804688 6.820312 1.585938 7.8125 2.664062 8.421875 Z M 33.167969 5.796875 C 33.144531 5.808594 33.113281 5.808594 33.089844 5.792969 C 32.992188 5.738281 32.945312 5.632812 32.960938 5.527344 C 33.003906 5.632812 33.074219 5.726562 33.167969 5.796875 Z M 4.707031 3.960938 C 4.6875 3.949219 4.671875 3.921875 4.667969 3.894531 C 4.777344 3.941406 4.890625 3.953125 5 3.933594 C 4.921875 4 4.804688 4.015625 4.707031 3.960938 Z M 62.636719 37.601562 C 62.617188 37.558594 62.589844 37.519531 62.5625 37.480469 C 62.542969 37.457031 62.53125 37.429688 62.511719 37.410156 C 62.476562 37.371094 62.429688 37.347656 62.386719 37.320312 C 62.363281 37.304688 62.347656 37.285156 62.320312 37.277344 C 62.296875 37.265625 62.265625 37.265625 62.238281 37.257812 C 62.191406 37.246094 62.144531 37.230469 62.097656 37.230469 C 62.09375 37.230469 62.089844 37.226562 62.085938 37.226562 C 48.757812 37.226562 37.910156 26.140625 37.910156 12.515625 C 37.910156 12.507812 37.90625 12.5 37.90625 12.492188 C 37.902344 12.449219 37.890625 12.410156 37.878906 12.367188 C 37.871094 12.332031 37.867188 12.296875 37.851562 12.265625 C 37.835938 12.234375 37.8125 12.207031 37.792969 12.179688 C 37.769531 12.144531 37.746094 12.109375 37.714844 12.082031 C 37.691406 12.058594 37.660156 12.039062 37.628906 12.023438 C 37.59375 12 37.558594 11.976562 37.519531 11.960938 C 37.480469 11.949219 37.441406 11.941406 37.402344 11.9375 C 37.371094 11.933594 37.347656 11.921875 37.316406 11.921875 L 0.621094 11.921875 C 0.292969 11.921875 0.0273438 12.1875 0.0273438 12.515625 C 0.0273438 17.042969 3.710938 20.730469 8.242188 20.730469 L 24.324219 20.730469 C 24.304688 21.144531 24.296875 21.535156 24.296875 21.902344 C 24.296875 38.289062 37.53125 51.632812 53.871094 51.828125 L 53.871094 66.808594 C 53.871094 71.335938 57.558594 75.023438 62.085938 75.023438 C 62.246094 75.023438 62.394531 74.960938 62.507812 74.847656 C 62.617188 74.738281 62.679688 74.585938 62.679688 74.429688 L 62.679688 37.820312 C 62.679688 37.792969 62.667969 37.765625 62.664062 37.738281 C 62.65625 37.691406 62.652344 37.644531 62.636719 37.601562 Z M 25.484375 21.902344 C 25.484375 21.535156 25.492188 21.148438 25.511719 20.730469 L 28.84375 20.730469 C 29.570312 20.730469 30.21875 21.21875 30.421875 21.921875 C 32.007812 27.421875 34.996094 32.375 38.945312 36.335938 L 33.5625 41.855469 C 28.566406 36.679688 25.484375 29.644531 25.484375 21.902344 Z M 53.871094 50.648438 C 46.332031 50.554688 39.488281 47.539062 34.40625 42.691406 L 39.800781 37.164062 C 43.457031 40.585938 47.859375 43.191406 52.699219 44.65625 C 52.789062 44.679688 52.871094 44.714844 52.953125 44.753906 C 53.511719 45.027344 53.871094 45.589844 53.871094 46.226562 Z M 61.492188 39.199219 L 61.492188 73.808594 C 57.894531 73.507812 55.058594 70.480469 55.058594 66.808594 L 55.058594 46.226562 C 55.058594 45.941406 55.011719 45.664062 54.933594 45.398438 C 54.8125 45 54.601562 44.640625 54.328125 44.335938 C 54.089844 44.074219 53.804688 43.847656 53.476562 43.6875 C 53.339844 43.621094 53.195312 43.5625 53.042969 43.515625 C 48.199219 42.054688 43.804688 39.402344 40.199219 35.910156 C 40.199219 35.90625 40.199219 35.90625 40.199219 35.90625 C 40.195312 35.90625 40.195312 35.90625 40.195312 35.90625 C 36.179688 32.015625 33.148438 27.085938 31.5625 21.59375 C 31.46875 21.265625 31.316406 20.96875 31.121094 20.703125 C 30.882812 20.378906 30.578125 20.113281 30.230469 19.914062 C 29.816406 19.679688 29.339844 19.542969 28.84375 19.542969 L 8.242188 19.542969 C 4.566406 19.542969 1.542969 16.707031 1.238281 13.109375 L 36.726562 13.109375 C 36.734375 13.429688 36.753906 13.75 36.773438 14.066406 C 37.535156 27.140625 47.832031 37.628906 60.644531 38.367188 C 60.925781 38.382812 61.207031 38.402344 61.492188 38.410156 Z M 48.71875 27.785156 C 51.457031 30.21875 54.628906 31.648438 57.644531 31.804688 C 57.839844 31.816406 58.03125 31.820312 58.222656 31.820312 C 61.289062 31.820312 64.054688 30.527344 66.246094 28.058594 C 70.984375 22.734375 72.382812 2.675781 72.441406 1.828125 C 72.453125 1.644531 72.378906 1.464844 72.242188 1.34375 C 72.105469 1.222656 71.921875 1.167969 71.738281 1.203125 C 70.902344 1.359375 51.144531 5.082031 46.40625 10.40625 C 41.855469 15.523438 42.785156 22.503906 48.71875 27.785156 Z M 47.292969 11.199219 C 51.261719 6.738281 67.476562 3.265625 71.195312 2.519531 C 70.886719 6.300781 69.328125 22.808594 65.359375 27.269531 C 63.277344 29.613281 60.632812 30.769531 57.707031 30.617188 C 54.957031 30.476562 52.046875 29.152344 49.511719 26.894531 C 45.011719 22.894531 42.585938 16.488281 47.292969 11.199219 Z M 51.800781 24.914062 C 51.890625 24.914062 51.976562 24.894531 52.0625 24.855469 L 59.726562 21.152344 C 61.34375 20.371094 62.65625 19.050781 63.453125 17.453125 C 63.605469 17.144531 63.746094 16.832031 63.859375 16.507812 L 66.644531 8.464844 C 66.722656 8.234375 66.65625 7.984375 66.476562 7.824219 C 66.296875 7.664062 66.039062 7.628906 65.824219 7.734375 L 58.15625 11.4375 C 57.800781 11.609375 57.460938 11.816406 57.136719 12.039062 C 55.707031 13.015625 54.597656 14.433594 54.027344 16.078125 L 51.824219 22.441406 L 51.242188 24.125 C 51.222656 24.179688 51.210938 24.238281 51.207031 24.296875 C 51.203125 24.472656 51.273438 24.644531 51.40625 24.761719 C 51.519531 24.863281 51.660156 24.914062 51.800781 24.914062 Z M 54.746094 17.628906 L 55.136719 16.507812 L 55.148438 16.46875 C 55.222656 16.257812 55.308594 16.050781 55.398438 15.847656 C 55.429688 15.785156 55.464844 15.726562 55.492188 15.664062 C 55.5625 15.527344 55.628906 15.390625 55.707031 15.257812 C 55.75 15.183594 55.800781 15.113281 55.847656 15.039062 C 55.921875 14.925781 55.992188 14.808594 56.070312 14.699219 C 56.125 14.625 56.1875 14.554688 56.242188 14.480469 C 56.324219 14.378906 56.398438 14.277344 56.484375 14.183594 C 56.546875 14.109375 56.617188 14.039062 56.683594 13.96875 C 56.769531 13.878906 56.855469 13.789062 56.945312 13.703125 C 57.019531 13.636719 57.09375 13.570312 57.171875 13.503906 C 57.261719 13.425781 57.351562 13.347656 57.449219 13.273438 C 57.53125 13.210938 57.613281 13.152344 57.699219 13.089844 C 57.796875 13.023438 57.890625 12.953125 57.992188 12.890625 C 58.082031 12.832031 58.171875 12.78125 58.265625 12.730469 C 58.335938 12.691406 58.40625 12.652344 58.476562 12.613281 C 58.542969 12.578125 58.605469 12.539062 58.671875 12.507812 L 59.886719 11.921875 L 65.050781 9.425781 L 63.175781 14.847656 L 62.734375 16.117188 C 62.710938 16.191406 62.675781 16.257812 62.652344 16.328125 C 62.621094 16.40625 62.589844 16.484375 62.554688 16.5625 C 62.515625 16.65625 62.476562 16.746094 62.433594 16.835938 C 62.382812 16.949219 62.320312 17.054688 62.261719 17.164062 C 62.214844 17.25 62.167969 17.335938 62.117188 17.421875 C 62.054688 17.527344 61.984375 17.628906 61.914062 17.734375 C 61.859375 17.8125 61.804688 17.894531 61.746094 17.976562 C 61.671875 18.074219 61.589844 18.171875 61.511719 18.265625 C 61.449219 18.339844 61.390625 18.417969 61.328125 18.488281 C 61.238281 18.582031 61.148438 18.671875 61.054688 18.765625 C 60.988281 18.828125 60.925781 18.898438 60.859375 18.960938 C 60.757812 19.050781 60.652344 19.132812 60.550781 19.21875 C 60.480469 19.273438 60.417969 19.332031 60.347656 19.386719 C 60.230469 19.472656 60.109375 19.550781 59.984375 19.632812 C 59.921875 19.675781 59.859375 19.722656 59.796875 19.761719 C 59.632812 19.859375 59.460938 19.953125 59.289062 20.039062 C 59.261719 20.050781 59.238281 20.066406 59.210938 20.082031 L 52.832031 23.160156 Z M 54.746094 17.628906 " fill-opacity="1" fill-rule="nonzero"/><path fill="#ffcc00" d="M 46.152344 53.167969 C 45.910156 53.136719 40.167969 52.386719 38.476562 52.582031 C 37.597656 52.683594 36.78125 52.949219 36.175781 53.328125 C 35.445312 53.792969 35.078125 54.386719 35.152344 55.007812 C 35.265625 56.011719 36.511719 56.664062 38.171875 56.664062 C 38.421875 56.664062 38.675781 56.652344 38.941406 56.621094 C 40.632812 56.425781 46.054688 54.398438 46.285156 54.3125 C 46.539062 54.21875 46.699219 53.960938 46.667969 53.6875 C 46.636719 53.417969 46.421875 53.203125 46.152344 53.167969 Z M 38.804688 55.441406 C 37.261719 55.617188 36.359375 55.117188 36.332031 54.875 C 36.320312 54.765625 36.464844 54.554688 36.8125 54.332031 C 37.261719 54.050781 37.917969 53.84375 38.613281 53.761719 C 38.769531 53.746094 38.972656 53.734375 39.210938 53.734375 C 40.253906 53.734375 41.980469 53.890625 43.503906 54.050781 C 41.726562 54.667969 39.640625 55.34375 38.804688 55.441406 Z M 49.699219 56.722656 C 49.433594 56.691406 49.171875 56.847656 49.074219 57.101562 C 48.988281 57.332031 46.960938 62.753906 46.765625 64.445312 C 46.664062 65.328125 46.738281 66.183594 46.972656 66.855469 C 47.257812 67.675781 47.757812 68.167969 48.378906 68.238281 C 48.429688 68.242188 48.476562 68.246094 48.523438 68.246094 C 49.617188 68.246094 50.582031 66.851562 50.804688 64.910156 C 51 63.21875 50.253906 57.476562 50.21875 57.234375 C 50.183594 56.964844 49.96875 56.753906 49.699219 56.722656 Z M 49.625 64.773438 C 49.449219 66.316406 48.769531 67.074219 48.511719 67.058594 C 48.425781 67.046875 48.238281 66.878906 48.097656 66.464844 C 47.921875 65.964844 47.867188 65.277344 47.949219 64.582031 C 48.042969 63.746094 48.71875 61.660156 49.335938 59.882812 C 49.535156 61.753906 49.722656 63.941406 49.625 64.773438 Z M 18.371094 23.675781 C 18.128906 23.640625 12.390625 22.894531 10.699219 23.089844 C 9.816406 23.1875 9 23.453125 8.398438 23.835938 C 7.664062 24.296875 7.300781 24.894531 7.371094 25.515625 C 7.484375 26.519531 8.734375 27.171875 10.390625 27.171875 C 10.640625 27.171875 10.898438 27.15625 11.160156 27.128906 C 12.851562 26.933594 18.273438 24.90625 18.503906 24.820312 C 18.757812 24.722656 18.917969 24.464844 18.886719 24.195312 C 18.855469 23.925781 18.644531 23.710938 18.371094 23.675781 Z M 11.023438 25.945312 C 9.480469 26.125 8.578125 25.625 8.550781 25.378906 C 8.539062 25.273438 8.683594 25.058594 9.03125 24.839844 C 9.480469 24.558594 10.136719 24.347656 10.832031 24.269531 C 10.988281 24.25 11.191406 24.242188 11.433594 24.242188 C 12.472656 24.242188 14.203125 24.394531 15.722656 24.558594 C 13.945312 25.175781 11.859375 25.851562 11.023438 25.945312 Z M 21.917969 27.226562 C 21.652344 27.195312 21.390625 27.355469 21.292969 27.609375 C 21.207031 27.839844 19.179688 33.261719 18.984375 34.953125 C 18.886719 35.832031 18.957031 36.6875 19.191406 37.363281 C 19.476562 38.183594 19.976562 38.671875 20.597656 38.742188 C 20.648438 38.75 20.695312 38.753906 20.746094 38.753906 C 21.835938 38.753906 22.804688 37.359375 23.027344 35.417969 C 23.21875 33.722656 22.472656 27.984375 22.441406 27.742188 C 22.40625 27.46875 22.191406 27.257812 21.917969 27.226562 Z M 21.84375 35.28125 C 21.667969 36.824219 21 37.59375 20.734375 37.5625 C 20.644531 37.554688 20.460938 37.386719 20.316406 36.972656 C 20.140625 36.472656 20.085938 35.785156 20.167969 35.089844 C 20.261719 34.253906 20.9375 32.167969 21.554688 30.390625 C 21.753906 32.261719 21.941406 34.445312 21.84375 35.28125 Z M 37.714844 12.082031 C 37.691406 12.058594 37.660156 12.042969 37.628906 12.023438 C 37.652344 12.035156 37.679688 12.042969 37.703125 12.0625 C 37.707031 12.066406 37.710938 12.074219 37.714844 12.082031 Z M 36.773438 14.066406 L 31.121094 20.703125 C 30.882812 20.378906 30.578125 20.113281 30.230469 19.914062 L 36.03125 13.109375 L 36.730469 13.109375 C 36.734375 13.429688 36.753906 13.75 36.773438 14.066406 Z M 62.519531 37.414062 C 62.539062 37.433594 62.546875 37.460938 62.5625 37.480469 C 62.542969 37.457031 62.53125 37.429688 62.511719 37.410156 C 62.515625 37.410156 62.515625 37.410156 62.519531 37.414062 Z M 60.644531 38.367188 C 60.925781 38.382812 61.207031 38.402344 61.492188 38.410156 L 61.492188 39.199219 L 54.933594 45.398438 C 54.8125 45 54.601562 44.640625 54.328125 44.335938 Z M 54.027344 16.078125 L 51.824219 22.441406 L 54.027344 16.078125 C 54.59375 14.433594 55.707031 13.015625 57.136719 12.039062 C 55.707031 13.015625 54.597656 14.433594 54.027344 16.078125 Z M 63.175781 14.847656 L 62.734375 16.117188 C 62.710938 16.191406 62.675781 16.257812 62.652344 16.328125 C 62.238281 15.445312 61.667969 14.675781 60.949219 14.035156 C 60.230469 13.398438 59.398438 12.917969 58.476562 12.613281 C 58.542969 12.578125 58.605469 12.539062 58.671875 12.507812 L 59.886719 11.921875 C 60.554688 12.246094 61.179688 12.652344 61.738281 13.148438 C 62.300781 13.648438 62.773438 14.21875 63.175781 14.847656 Z M 59.210938 20.082031 L 52.832031 23.164062 L 58.105469 20.613281 C 57.789062 19.90625 57.328125 19.269531 56.75 18.757812 C 56.171875 18.242188 55.488281 17.855469 54.746094 17.628906 L 55.136719 16.507812 C 56.023438 16.789062 56.847656 17.25 57.542969 17.867188 C 58.238281 18.488281 58.785156 19.253906 59.167969 20.101562 L 59.210938 20.082031 C 59.238281 20.066406 59.261719 20.050781 59.289062 20.039062 C 59.261719 20.050781 59.238281 20.070312 59.210938 20.082031 Z M 51.207031 24.296875 C 51.203125 24.429688 51.242188 24.558594 51.320312 24.664062 C 51.242188 24.558594 51.203125 24.429688 51.207031 24.296875 Z M 51.328125 15.195312 C 50.304688 14.285156 48.734375 14.378906 47.824219 15.398438 C 46.914062 16.421875 47.007812 17.992188 48.027344 18.902344 C 48.488281 19.308594 49.066406 19.53125 49.675781 19.53125 C 49.722656 19.53125 49.773438 19.527344 49.824219 19.527344 C 50.484375 19.488281 51.089844 19.191406 51.53125 18.699219 C 52.441406 17.675781 52.347656 16.105469 51.328125 15.195312 Z M 50.644531 17.90625 C 50.414062 18.164062 50.097656 18.320312 49.753906 18.339844 C 49.410156 18.359375 49.078125 18.246094 48.820312 18.015625 C 48.285156 17.539062 48.238281 16.722656 48.710938 16.1875 C 49.1875 15.65625 50.003906 15.609375 50.539062 16.082031 C 51.070312 16.554688 51.117188 17.375 50.644531 17.90625 Z M 59.074219 23.058594 C 58.410156 23.097656 57.804688 23.390625 57.363281 23.886719 C 56.457031 24.910156 56.546875 26.480469 57.570312 27.390625 C 58.042969 27.808594 58.628906 28.015625 59.21875 28.015625 C 59.902344 28.015625 60.582031 27.734375 61.070312 27.183594 C 61.511719 26.691406 61.734375 26.054688 61.695312 25.390625 C 61.65625 24.730469 61.363281 24.121094 60.867188 23.683594 C 60.371094 23.242188 59.730469 23.019531 59.074219 23.058594 Z M 60.183594 26.394531 C 59.710938 26.925781 58.890625 26.976562 58.359375 26.503906 C 57.828125 26.027344 57.777344 25.210938 58.253906 24.675781 C 58.480469 24.417969 58.796875 24.265625 59.144531 24.246094 C 59.167969 24.242188 59.195312 24.242188 59.21875 24.242188 C 59.535156 24.242188 59.839844 24.359375 60.078125 24.570312 C 60.335938 24.800781 60.488281 25.117188 60.507812 25.460938 C 60.527344 25.804688 60.414062 26.136719 60.183594 26.394531 Z M 60.183594 26.394531 " fill-opacity="1" fill-rule="nonzero"/></svg>